<svg width="18" height="19" viewBox="0 0 18 19" fill="none" xmlns="http://www.w3.org/2000/svg">
<path fill-rule="evenodd" clip-rule="evenodd" d="M7.52607 3.74422C7.47517 3.44226 7.43684 3.14372 7.41207 2.84515C7.37475 2.39729 7.39782 1.94601 7.38459 1.49815C7.37882 1.30815 7.35609 0.8128 7.36525 0.74155C7.44837 0.120657 7.94949 0.0256456 8.09606 0.00868133C8.16698 -0.00149724 8.89508 -0.0828894 9.05217 0.724611C9.24488 1.71193 9.30664 2.70603 9.23844 3.67978C9.39757 4.50763 9.66968 5.33208 10.029 6.07851C11.4587 9.04726 14.1832 9.33566 17.135 9.30851C17.5889 9.30173 17.9659 9.65797 17.9896 10.1092C18.0134 10.5639 17.6755 10.9574 17.2235 10.9981C15.5736 11.1576 12.6462 12.4808 11.6341 13.8583C11.4224 14.1467 11.2993 14.8423 11.1364 15.5243C10.9091 16.4709 10.6387 17.4073 10.3357 17.8008C10.2902 17.8619 9.73753 18.4862 9.57263 18.5778C9.17635 18.795 8.85912 18.6694 8.67896 18.554C8.4988 18.4387 8.29489 18.2114 8.21346 17.8348C8.1283 17.4412 8.20023 16.6337 8.187 16.4606C8.13882 15.833 8.01329 14.6014 7.75713 13.5428C7.61904 12.9728 7.47178 12.4469 7.22818 12.1856C6.32636 11.2187 4.88439 11.3612 3.67009 11.5207C3.53064 11.5376 3.3912 11.558 3.25209 11.575C2.75775 11.7209 2.23286 11.8294 1.67813 11.8939C0.840434 11.9923 0.702694 11.2221 0.695229 11.1712C0.679622 11.0592 0.621598 10.4825 1.25301 10.2517C1.32188 10.228 1.83014 10.116 2.02591 10.0719C2.29869 10.0108 2.57453 9.96335 2.85138 9.91924C5.71122 9.03032 7.26448 6.53315 7.52607 3.74422ZM8.50762 6.82836C9.58723 9.06086 11.2256 10.1398 13.1677 10.6283C11.9551 11.2628 10.8517 12.0568 10.2671 12.8541C10.0453 13.156 9.84169 13.7633 9.65814 14.4453C9.55873 13.8108 9.42438 13.1356 9.24693 12.5589C9.04506 11.9006 8.77328 11.3544 8.46995 11.0287C7.88435 10.401 7.14945 10.0516 6.35925 9.87853C7.30518 9.0405 8.02244 7.9955 8.50762 6.82836Z" fill="#C2E978"/>
</svg>
