<svg width="57" height="56" viewBox="0 0 57 56" fill="none" xmlns="http://www.w3.org/2000/svg">
<path d="M51.9407 24.8524C51.6256 22.1594 50.3268 20.1922 47.758 19.1799C48.8371 16.105 48.3214 13.2783 46.1059 10.7095C43.3556 8.15972 40.3571 7.74909 37.1102 9.32477C35.9165 6.93737 33.6246 5.2471 31.0367 4.75052C27.4747 4.33034 24.8867 5.50494 23.0723 7.93053C21.6781 7.03287 19.8828 6.53629 17.9919 6.44079C16.3972 6.3453 15.0889 6.62224 14.0098 7.33846C10.2186 9.84999 11.6224 14.2046 11.8229 14.9017C10.4287 14.9972 8.63336 15.1023 7.24867 16.296C5.94993 17.3942 2.70307 23.3531 9.9321 28.0419C9.73156 30.1333 10.4287 32.2247 11.8229 33.9149C13.3031 35.8821 15.6237 37.1809 19.3862 37.2955C20.4844 37.2 21.277 36.3023 21.1815 35.2041C21.086 34.1059 20.1883 33.3133 19.0901 33.4088C15.2608 33.4852 12.9593 30.7254 13.8188 27.4403C14.1912 26.323 13.5896 24.7378 12.0235 24.7569C10.0085 24.776 8.14633 21.0803 9.43553 19.4855C10.4 18.8743 13.0548 19.2181 15.0125 18.5879C15.5091 18.3873 16.741 17.5279 16.1107 15.9044C14.8979 13.6316 14.5541 11.8172 15.8146 10.824C18.5076 10.0505 20.4271 11.0246 22.0887 12.6194C23.5307 14.1664 25.412 13.4884 25.6698 11.6262C25.794 10.7381 26.3669 10.0314 26.768 9.7354C29.7666 7.4244 33.806 9.659 34.0352 13.4215C33.9397 15.045 36.7282 16.3055 37.8169 14.0232C39.0774 12.0464 41.2929 11.9413 43.1646 13.5457C44.9695 15.5988 44.6353 17.8334 42.8877 20.1922C41.608 22.1403 43.7949 23.9834 45.3801 23.0762C45.7812 22.7801 46.5738 22.8756 47.0704 23.2767C49.4005 25.8646 47.4046 30.3625 42.8877 29.3502C41.8945 28.9491 40.7963 29.5508 40.3953 30.5439C39.9942 31.5371 40.5958 32.6353 41.589 33.0364C46.803 34.4688 52.103 31.5084 51.9407 24.8524Z" fill="#C2E978"/>
<path d="M38.7048 20.8703C37.9122 20.1731 36.6135 20.3737 36.0214 21.2713L30.75 28.529V20.7748C30.75 19.6766 29.8523 18.7885 28.7637 18.7885C27.675 18.7885 26.7774 19.6861 26.7774 20.7748V23.6778L22.9767 19.476C22.184 18.6834 20.9903 18.6834 20.1882 19.3805C19.3956 20.1731 19.3956 21.3668 20.0927 22.169L26.7583 29.5795V49.3471C26.7583 50.4453 27.6559 51.3334 28.7446 51.3334C29.8333 51.3334 30.7309 50.4357 30.7309 49.3471V35.1182L39.0963 23.5728C39.7935 22.7611 39.6025 21.4623 38.7048 20.8703Z" fill="#C2E978"/>
</svg>
