<svg width="56" height="56" viewBox="0 0 56 56" fill="none" xmlns="http://www.w3.org/2000/svg">
<path fill-rule="evenodd" clip-rule="evenodd" d="M5.25 17.5C5.25 11.3789 10.2122 6.41669 16.3333 6.41669H39.6667C45.7878 6.41669 50.75 11.3789 50.75 17.5V26.8334C50.75 32.9545 45.7878 37.9167 39.6667 37.9167H16.3333C10.2122 37.9167 5.25 32.9545 5.25 26.8334V17.5ZM16.3333 9.91669C12.1452 9.91669 8.75 13.3119 8.75 17.5V26.8334C8.75 31.0215 12.1452 34.4167 16.3333 34.4167H39.6667C43.8548 34.4167 47.25 31.0215 47.25 26.8334V17.5C47.25 13.3119 43.8548 9.91669 39.6667 9.91669H16.3333Z" fill="#C2E978"/>
<path fill-rule="evenodd" clip-rule="evenodd" d="M5.25 26.8334V32.6667C5.25 38.7879 10.2122 43.75 16.3333 43.75H39.6667C45.7878 43.75 50.75 38.7879 50.75 32.6667V26.8334C50.75 30.2552 49.1993 33.3148 46.7624 35.3479C45.6793 38.2128 42.9109 40.25 39.6667 40.25H16.3333C13.0891 40.25 10.3207 38.2128 9.23761 35.3479C6.80066 33.3148 5.25 30.2552 5.25 26.8334Z" fill="#C2E978"/>
<path fill-rule="evenodd" clip-rule="evenodd" d="M5.25 32.6667V38.5C5.25 44.6212 10.2122 49.5834 16.3333 49.5834H39.6667C45.7878 49.5834 50.75 44.6212 50.75 38.5V32.6667C50.75 36.0885 49.1993 39.1481 46.7624 41.1812C45.6793 44.0461 42.9109 46.0834 39.6667 46.0834H16.3333C13.0891 46.0834 10.3207 44.0461 9.23761 41.1812C6.80066 39.1481 5.25 36.0885 5.25 32.6667Z" fill="#C2E978"/>
<path fill-rule="evenodd" clip-rule="evenodd" d="M24.3586 15.6266C25.3376 14.7573 26.6683 14.3461 28.1651 14.377C29.0307 14.3948 29.9821 14.5157 30.886 14.9346C31.827 15.3706 32.6088 16.0794 33.1886 17.0907C33.6693 17.9291 33.3793 18.9985 32.5408 19.4793C31.7023 19.96 30.6329 19.67 30.1522 18.8315C29.9172 18.4216 29.6698 18.2285 29.4145 18.1102C29.1222 17.9748 28.7103 17.889 28.0929 17.8762C27.2699 17.8593 26.8621 18.0843 26.6825 18.2438C26.5087 18.3981 26.4019 18.6167 26.4019 18.9211C26.4019 19.3547 26.5284 19.675 26.7316 19.8825C26.9194 20.0743 27.3984 20.4011 28.5875 20.4011C29.6583 20.4011 30.9429 20.5978 31.9952 21.3844C33.1413 22.2411 33.7132 23.5671 33.7132 25.1718C33.7132 26.6765 32.9226 27.9291 31.9069 28.7541C30.889 29.5809 29.5409 30.0773 28.129 30.0773C26.7919 30.0773 25.5908 29.7158 24.5859 28.9922C23.5952 28.2787 22.9015 27.2906 22.4301 26.1989C22.0469 25.3116 22.4556 24.2817 23.3429 23.8986C24.2302 23.5154 25.2602 23.9241 25.6433 24.8114C25.9271 25.4687 26.2696 25.8916 26.6312 26.152C26.9786 26.4022 27.4461 26.5773 28.129 26.5773C28.7371 26.5773 29.3061 26.3575 29.7003 26.0373C30.0968 25.7153 30.2132 25.3902 30.2132 25.1718C30.2132 24.4421 29.9934 24.2578 29.8997 24.1877C29.7122 24.0476 29.309 23.9011 28.5875 23.9011C26.7406 23.9011 25.2518 23.3739 24.2308 22.3312C23.2253 21.3043 22.9019 20.0095 22.9019 18.9211C22.9019 17.7036 23.3738 16.501 24.3586 15.6266Z" fill="#C2E978"/>
<path fill-rule="evenodd" clip-rule="evenodd" d="M28 11.7213C28.6444 11.7213 29.1667 12.2436 29.1667 12.888V15.8181C29.1667 16.4624 28.6444 16.9848 28 16.9848C27.3557 16.9848 26.8334 16.4624 26.8334 15.8181V12.888C26.8334 12.2436 27.3557 11.7213 28 11.7213Z" fill="#C2E978"/>
<path fill-rule="evenodd" clip-rule="evenodd" d="M28.0555 27.3486C28.6998 27.3486 29.2221 27.8709 29.2221 28.5152V31.4454C29.2221 32.0897 28.6998 32.612 28.0555 32.612C27.4111 32.612 26.8888 32.0897 26.8888 31.4454V28.5152C26.8888 27.8709 27.4111 27.3486 28.0555 27.3486Z" fill="#C2E978"/>
</svg>
