<svg width="57" height="56" viewBox="0 0 57 56" fill="none" xmlns="http://www.w3.org/2000/svg">
<path d="M49.6764 27.9142H45.7907L47.9042 25.5448C48.596 24.7582 48.4918 23.4693 47.7051 22.7869C46.9185 22.095 45.6296 22.1993 44.9472 22.9859L43.4687 24.6445V20.8156C43.4687 19.7352 42.5779 18.8443 41.4974 18.8443C40.417 18.8443 39.5261 19.7352 39.5261 20.8156V29.0609L37.1568 31.7146V27.8194C37.1568 26.739 36.2659 25.8481 35.1855 25.8481C34.1051 25.8481 33.2142 26.739 33.2142 27.8194V36.1405L30.4847 39.2017C30.2573 37.7706 29.9635 34.2261 29.9635 33.8375C29.8687 32.16 29.6697 30.2835 30.1625 29.0041C30.3615 28.4165 31.5462 24.2748 32.1338 23.384C33.0057 22.1329 35.2045 21.5453 37.261 19.1476C38.531 17.6596 39.1376 16.0864 39.0333 14.6079C38.9385 13.5275 38.0477 12.7314 36.9578 12.8356C35.8679 12.9399 35.0812 13.8213 35.1855 14.9112C35.1855 15.3092 35.0339 15.9253 33.9345 16.8825C32.7024 16.2759 33.726 13.7739 31.1387 10.0777C30.5226 9.20578 29.3664 8.89303 28.4755 9.49011C27.5846 10.0872 27.2908 11.2624 27.8879 12.248C30.1341 15.1007 28.6177 17.072 30.9112 19.2139C30.2383 19.6688 29.518 20.2185 28.9209 20.9862C28.1912 20.2375 27.7931 18.6642 27.5941 17.5743C27.3003 16.1906 27.0065 14.7121 26.2104 13.4327C25.6228 12.4471 24.4381 12.1533 23.5473 12.7409C22.5616 13.3284 22.2678 14.5131 22.8554 15.404C23.6799 16.7214 23.8695 21.8581 26.7032 24.5781C26.9023 25.0709 26.9023 25.6585 26.7032 26.1514C26.599 26.4167 25.1679 30.2645 25.9166 34.0365C26.0114 34.4346 26.3052 38.5194 26.5516 40.1589L23.0639 36.2353V28.0184C23.0639 26.938 22.173 26.0471 21.0926 26.0471C20.0122 26.0471 19.1213 26.938 19.1213 28.0184V31.7999L16.951 29.3642V21.1094C16.951 20.029 16.0601 19.1381 14.9797 19.1381C13.8993 19.1381 13.0084 20.029 13.0084 21.1094V24.9288L11.6247 23.3745C10.8381 22.4836 9.65341 22.4836 8.86679 23.1755C7.97592 23.9621 7.97592 25.1468 8.66777 25.9334L10.6106 28.1037H6.97131C5.89089 28.1037 5.00002 28.9946 5.00002 30.075C5.00002 31.1554 5.89089 32.0463 6.97131 32.0463H14.1173L16.7615 35.0032H13.0842C12.0038 35.0032 11.1129 35.8941 11.1129 36.9745C11.1129 38.055 12.0038 38.9458 13.0842 38.9458H20.306L22.3057 41.1825C21.159 41.7891 20.1544 42.8031 19.5952 44.0731C19.1024 45.0588 19.5004 46.1487 20.4861 46.6415C20.6851 46.7362 22.2489 47.267 22.9502 45.8549C23.244 45.2673 23.7368 44.7744 24.3339 44.5754C27.632 43.7224 32.7119 44.2816 37.1568 45.6558C38.2372 45.9496 39.3271 45.362 39.6209 44.3764C39.9147 43.296 39.3271 42.2061 38.3415 41.9123C36.882 41.4479 35.5551 41.0877 34.2757 40.8224L36.029 38.8605H43.2792C44.3596 38.8605 45.2505 37.9697 45.3547 36.8892C45.3547 35.8088 44.4639 34.9179 43.3834 34.9179H39.5546L42.2841 31.8567H49.5911C50.6716 31.8567 51.6667 30.9659 51.6667 29.8854C51.6477 28.805 50.7569 27.9142 49.6764 27.9142Z" fill="#C2E978"/>
</svg>
