<svg width="56" height="56" viewBox="0 0 56 56" fill="none" xmlns="http://www.w3.org/2000/svg">
<path d="M48.5944 20.5848C48.5944 11.8336 39.3374 4.66663 28 4.66663C16.6626 4.66663 7.40558 11.8336 7.40558 20.5848C7.40558 28.8207 15.5937 35.6537 26.015 36.4267V49.3387C26.015 50.4362 26.9121 51.3333 28.0095 51.3333C29.107 51.3333 30.0041 50.4362 30.0041 49.3387V36.4362C40.4063 35.6537 48.5944 28.8207 48.5944 20.5848ZM29.9945 32.5426V29.4792L37.9536 23.5814C38.8507 22.9802 38.9461 21.7873 38.3545 20.8998C37.7532 20.0027 36.5603 19.9073 35.6728 20.4989L30.0041 24.7075V20.4989C30.0041 19.4015 29.107 18.5044 28.0095 18.5044C26.9121 18.5044 26.015 19.4015 26.015 20.4989V26.6925L20.3367 22.0831C19.4397 21.3865 18.2468 21.5869 17.5501 22.379C16.8534 23.276 17.0538 24.4689 17.8459 25.1656L26.0054 31.7791V32.533C17.6932 31.8173 11.2802 26.6639 11.2802 20.4798C11.2897 13.8186 18.743 8.44577 28 8.44577C37.257 8.44577 44.7103 13.9141 44.7103 20.5848C44.7103 26.7689 38.2972 31.8364 29.9945 32.5426Z" fill="#C2E978"/>
</svg>
