<svg width="57" height="56" viewBox="0 0 57 56" fill="none" xmlns="http://www.w3.org/2000/svg">
<path d="M32.8837 20.7628C34.567 20.7628 36.0506 23.1403 36.45 23.9297C36.9636 25.2896 39.5408 25.3086 40.0163 24.0248C40.4158 23.1308 41.8993 20.8579 43.5827 20.8579C44.6763 20.8579 45.5608 19.9639 45.5608 18.8797C45.5608 17.7861 44.6668 16.9016 43.5827 16.9016C41.2241 16.9016 39.4362 18.2996 38.2569 19.6691C37.0777 18.2616 35.2802 16.797 32.8837 16.797C31.79 16.797 30.9055 17.691 30.9055 18.7751C30.896 19.8783 31.79 20.7628 32.8837 20.7628Z" fill="#C2E978"/>
<path d="M13.6642 16.0076C15.3475 16.0076 16.8311 18.3852 17.2306 19.1745C17.9153 20.6201 20.1692 20.5535 20.7969 19.2696C21.1963 18.3757 22.6799 16.1027 24.3632 16.1027C25.4569 16.1027 26.3413 15.2088 26.3413 14.1246C26.3413 13.0309 25.4474 12.1465 24.3632 12.1465C22.0047 12.1465 20.2168 13.5445 19.0375 14.9139C17.8582 13.5064 16.0608 12.0419 13.6642 12.0419C12.5706 12.0419 11.6861 12.9358 11.6861 14.02C11.6766 15.1232 12.5706 16.0076 13.6642 16.0076Z" fill="#C2E978"/>
<path d="M50.0218 4.71899H7.32099C6.22732 4.71899 5.33336 5.60344 5.33336 6.69712V49.3028C5.33336 50.3965 6.22732 51.281 7.31148 51.281H49.9172C51.0109 51.281 51.8953 50.387 51.9999 49.3979V6.69712C52.0095 5.60344 51.1155 4.71899 50.0218 4.71899ZM48.0437 8.58014V42.037L44.4774 34.6381C42.3946 30.3775 39.5226 28 36.3461 28C33.3695 28 30.6971 29.9781 28.719 33.649C26.7408 29.9876 24.059 28 21.0918 28C17.9249 28 15.0433 30.3775 12.9701 34.6381L9.20401 42.446V8.58014H48.0437ZM46.1607 47.4198H11.049L16.2416 36.3214C17.6301 33.5444 19.3134 31.9657 20.9016 31.9657C22.5849 31.9657 24.2682 33.5539 25.5616 36.3214C26.0561 37.5102 27.2449 38.2044 28.5383 38.2044C29.8221 38.2044 30.9158 37.5102 31.515 36.3214C32.9034 33.5444 34.5868 31.9657 36.175 31.9657C37.8583 31.9657 39.5416 33.5539 40.835 36.3214L46.1607 47.4198Z" fill="#C2E978"/>
</svg>
