<svg width="64" height="64" viewBox="0 0 64 64" fill="none" xmlns="http://www.w3.org/2000/svg">
<g clip-path="url(#clip0_150_1825)">
<path d="M63.9777 28.9121C63.9607 28.5569 63.9245 28.2145 63.8777 27.8763L63.8629 27.9082H63.7501V28.1337H63.8076V28.3038H63.7374L63.6395 28.0486V27.8231H63.8629V27.7742C63.8638 27.7629 63.8638 27.7515 63.8629 27.7402L63.6502 27.687V27.4339L63.7331 27.3212L63.8139 27.4276L63.782 27.2532H63.7608L63.7799 27.2191L63.7608 27.1383V27.1979H63.6502V27.1404H63.4503V27.0277L63.5928 27.0852L63.6502 26.915L63.697 26.8512C63.6714 26.7406 63.6459 26.6385 63.6183 26.5194H63.5651V26.4641H63.5842C63.1972 24.9754 62.5953 23.6036 62.0827 22.1489H62.0508L62.0083 22.1787L61.8807 22.0362V21.9809H61.9381L61.9934 21.9235H62.0041C61.836 21.4364 61.6808 20.9409 61.5468 20.4347C61.5468 20.4177 61.5468 20.3986 61.5468 20.3815H61.4915L61.5425 20.3582C61.4825 19.7716 61.3183 19.2005 61.0576 18.6716L60.9832 18.7461H60.9258V18.661H61.0534C60.996 18.5376 60.9343 18.4122 60.8705 18.2888V18.4164L60.8428 18.3037L60.862 18.2824C60.5089 17.5997 60.0729 16.9277 59.6752 16.3003H59.6582L59.588 16.3428L59.5732 16.2726L59.6136 16.2046C59.3711 15.8196 59.1435 15.4538 58.9755 15.1157C57.8419 12.9804 56.7786 11.4618 54.6518 10.173C50.7811 7.82081 47.9737 4.6434 43.5755 3.2695C40.1557 2.13168 37.3483 0.76416 33.7073 0.76416H28.0926C26.0445 0.76416 24.4494 1.52342 22.563 2.13168L22.1844 2.20611C21.3784 2.86116 20.1363 3.11425 18.9708 3.412H18.956C18.3942 3.54077 17.8459 3.72235 17.3183 3.95433C17.246 3.98835 17.1758 4.02664 17.1057 4.06066L17.2482 4.03727L17.3885 3.95433L17.3035 4.06704L17.1907 4.15212L17.0227 4.34778V4.15212L17.0695 4.07981C15.8785 4.67318 14.8045 5.44307 13.605 6.15129C13.0414 6.47668 12.4693 6.81484 11.9163 7.18703V7.30825L11.8589 7.36568L11.8313 7.30825V7.25296C11.6016 7.40821 11.3783 7.57197 11.1592 7.74212V7.88036L11.0954 7.9952V8.11005L10.9827 8.32273L10.87 8.43757V8.26743L10.9827 8.15471L10.8976 8.04199L10.9827 7.87398H11.0103L11.0358 7.82506C10.4941 8.24633 10.0056 8.73197 9.58113 9.27127C8.92608 10.0943 8.24977 11.3279 7.43734 12.1998L7.41607 12.2445H7.39693C7.32675 12.3168 7.25444 12.3891 7.18425 12.4572V12.4699L7.32462 12.3849L7.40969 12.5252L7.23955 12.8081L7.29697 12.9208H7.24593L7.16086 12.8081L7.24593 12.6656L7.07579 12.5827V12.5508C6.8908 12.7154 6.6874 12.8581 6.46966 12.9761V12.8995C6.45524 12.994 6.43607 13.0877 6.41223 13.1803H6.42925H6.45689V13.4631L6.42925 13.5184L6.37395 13.3249C6.35268 13.3972 6.32716 13.4653 6.30164 13.5376H6.31865H6.29739C6.17712 13.826 6.02595 14.1005 5.84651 14.3564H5.86778L5.9805 14.299L5.86778 14.4691L5.81035 14.4415L5.75293 14.5244H5.73592C5.50197 14.8604 5.25101 15.1901 5.03621 15.5559L5.00218 15.6112L5.0277 15.7388L5.11277 15.7941L5.083 15.8792H4.82778C4.3387 16.6781 3.9018 17.5079 3.51982 18.3632C2.73929 19.852 2.15868 21.4747 1.59083 23.1038L1.68441 23.123L1.57169 23.2102H1.5568L1.50576 23.3569H1.57169L1.62911 23.6376L1.57169 23.6674L1.4611 23.5823L1.48236 23.5207V23.4016C1.48236 23.4165 1.47173 23.4335 1.46748 23.4505C1.3544 23.738 1.25644 24.0311 1.17398 24.3288V24.3714L1.14208 24.482L1.18461 24.4565V24.5841L1.11656 24.5564C0.820936 25.707 0.720977 26.8661 0.491285 28.0698C0.187156 29.7394 0.340284 31.26 0.110592 32.8487C0.0287432 33.3405 -0.00402845 33.8392 0.0127607 34.3375L0.057423 34.3672L0 34.4076C0.0531694 35.5944 0.397707 36.6939 0.931528 37.8722L1.08253 37.719C1.96727 38.1274 1.63336 39.446 1.50788 40.318H1.55893L1.49087 40.4371C1.48236 40.4952 1.47598 40.5505 1.47173 40.6029C1.39517 41.8918 1.77373 42.5766 2.22886 43.7123C2.8669 45.3967 3.63679 47.1853 4.74059 48.6634C4.92987 48.9165 5.12553 49.1632 5.33608 49.395L5.30843 49.3823C6.29739 50.1628 7.70744 52.8723 8.56878 54.0187L8.61983 53.9697H8.67512L8.81549 54.1101L8.74531 54.2377C8.79346 54.2963 8.84608 54.351 8.90269 54.4015C9.65982 55.0097 10.5722 55.4649 11.3293 55.9966C12.3162 56.6027 12.9989 57.3619 13.9857 57.8936C15.8828 58.8783 17.7777 60.0204 19.7514 60.7754C20.5404 61.0647 21.2869 61.3156 22.0185 61.5368L22.0036 61.254L22.0249 61.2327L22.1419 61.3539L22.1015 61.3943L22.027 61.5389C22.178 61.5857 22.3269 61.6304 22.4779 61.6729V61.6198L22.5779 61.5198L22.6268 61.7155C22.882 61.7899 23.1372 61.8601 23.3903 61.9281V61.875L23.4158 61.9345C23.6583 61.9983 23.9007 62.06 24.1453 62.1195V62.0855L24.2261 62.0068L24.1644 62.1238C25.3724 62.4173 26.5953 62.6598 27.9458 62.9022C29.9174 63.2063 31.891 63.1298 33.9391 63.2063C36.1403 63.3573 37.6567 62.9022 39.7814 62.4471C40.574 62.3136 41.3586 62.1361 42.1315 61.9154C42.6167 61.7498 43.1146 61.6239 43.6202 61.5389V61.4985L43.6755 61.4432L43.7031 61.4985V61.5198C44.6559 61.3369 45.5917 61.1561 46.3722 60.4734C47.6632 59.3356 48.952 58.5019 50.0899 57.2109V57.4385C51.3787 57.7426 53.884 54.4036 54.7943 53.4933C56.0703 52.1598 57.0955 50.6498 58.1503 49.2206H58.1078V49.1079L58.295 49.0292L58.5863 48.6379C60.4834 46.1347 62.1529 42.9467 62.8399 39.9181L62.7633 39.9926C62.6123 36.1963 64.2053 32.7062 63.9777 28.9121ZM1.66314 40.1691H1.57807L1.63336 40.1138H1.66314V40.1691ZM1.66314 39.6331L1.63336 39.6906V39.6055H1.66314V39.6331ZM62.7931 36.6727V36.645H62.8207L62.7931 36.6727ZM62.9909 36.2218L62.9335 36.2771V36.1644L62.9909 36.1091V36.2218ZM62.9335 36.0516H62.876V35.9389H62.9909L62.9335 36.0516ZM63.329 27.1468H63.1312V27.0915H63.329V27.1468ZM63.3567 27.2043L63.4396 27.2595V27.2872H63.329L63.3567 27.2043ZM63.2163 27.2595V27.2872H63.1589L63.2163 27.2595ZM63.2716 27.7381L63.329 27.7104V27.5977H63.2716L63.1589 27.485L63.2716 27.4297H63.329L63.2716 27.485L63.4396 27.5701V27.6828L63.329 27.7381H63.2716ZM63.5545 27.2595L63.6395 27.317L63.4971 27.3999L63.5545 27.2595ZM63.4971 28.0486L63.4396 28.106H63.3843V28.0209H63.4396L63.4971 28.0486ZM63.3843 26.4705V26.5258L63.3567 26.4705H63.3843ZM63.3843 26.6683V26.7236L63.5545 26.8087V26.8937H63.4971L63.4396 26.864L63.3567 26.9767V26.8087L63.2716 26.6683L63.3567 26.6109L63.3843 26.6683ZM63.2163 26.4407L63.2716 26.4705H63.2163V26.4407ZM63.1312 26.2281H63.1589L63.1312 26.2834V26.2281ZM63.1015 26.932L63.1312 26.9044L63.1015 26.7066H63.1589L63.2993 26.9044L63.1589 26.9873H63.1015V26.932ZM62.9909 26.3961L63.0462 26.4514H62.9335L62.9909 26.3961ZM62.8207 27.9741L62.9037 28.0592L62.8207 28.1166V27.9741ZM62.708 27.8912V27.8338H62.7633L62.8207 27.8912H62.708ZM62.876 27.8061V27.7211H62.9335L62.876 27.8061ZM62.876 27.5254L62.8207 27.6658L62.6506 27.6083V27.5615H62.708L62.9335 27.4212L62.876 27.5254ZM62.6506 26.9873L62.7633 26.8746V26.9873H62.6506ZM62.6804 26.5939V26.6789H62.7633V26.7066H62.6229L62.6804 26.5939ZM62.5953 27.2149H62.6506V27.2702L62.5953 27.2978V27.2149ZM62.4528 26.0579V26.0728L62.4252 26.0452L62.4528 26.0579ZM62.3124 26.3684H62.3699V26.3961H62.3082L62.3124 26.3684ZM62.4528 26.932L62.4252 27.1022H62.3082L62.4528 26.932ZM62.3422 32.3978H62.4252L62.3422 32.6233V32.3978ZM62.2295 23.3803H62.2848V23.4356L62.1997 23.4909L62.2295 23.3803ZM61.9466 32.1724V32.115L61.9743 32.0576L62.087 31.8895L62.1168 31.9746H62.1721V32.0278L62.087 32.0554L61.9466 32.1724ZM62.087 32.4808H62.0317L61.9743 32.4531L62.0317 32.3978L62.087 32.4808ZM61.8892 31.747V31.7215H61.9466L61.9743 31.747H62.0955L61.9551 31.8342L61.8892 31.747ZM62.0317 31.6641L61.9743 31.6365V31.3536L62.087 31.2409V31.4387L62.1997 31.494L62.0317 31.6641ZM62.0593 25.8899V25.9452H62.0019L62.0593 25.8899ZM62.0019 23.576L62.0593 23.4909L62.087 23.661H62.0593L62.0019 23.576ZM62.1721 31.1834L62.087 31.1282L62.1997 31.0154L62.2848 31.0431L62.1721 31.1834ZM62.1444 24.3948V24.3374L62.1997 24.3948H62.1444ZM61.919 22.7295L62.0019 22.6742L62.1444 22.7869V22.8826H62.0955L62.0104 22.7423H61.9551V22.7699L61.9275 22.8273L61.919 22.7295ZM61.8892 23.7185H61.919L61.8892 23.7738H61.8339L61.8892 23.7185ZM61.7488 23.0677L61.6935 23.208L61.6638 23.1825L61.6935 23.0677H61.7488ZM61.7212 23.9992H61.6935V23.9418L61.7212 23.9992ZM61.6063 22.8444L61.6638 22.8997H61.5511L61.6063 22.8444ZM61.6361 30.958V31.0729L61.466 31.2409L61.4107 31.3536L61.3533 31.2409H61.4107L61.466 31.0431L61.6361 30.958ZM61.3256 23.4356V23.3803H61.4575L61.4298 23.4356H61.3256ZM61.383 24.1693V24.197H61.3256L61.383 24.1693ZM61.4958 22.1383V22.1659L61.466 22.1383H61.4958ZM61.383 22.5636L61.3256 22.3084L61.466 22.3935L61.383 22.5636ZM61.3256 22H61.383L61.2682 22.0553L61.3256 22ZM61.1002 20.0859L61.2129 19.9732L61.2405 20.0285V20.0859H61.1002ZM61.1555 24.8223V24.8797H61.1002V24.7967L61.1555 24.8223ZM60.9875 19.1842H61.2129L60.9875 19.2948V19.1842ZM60.9875 19.6351H61.0172L60.9875 19.7201V19.6351ZM60.9875 19.9158H61.0172V20.0285H60.9598L60.9875 19.9158ZM60.9598 22.3701V22.4552H60.8471L60.9598 22.3701ZM60.7705 24.1459V24.0056L60.7131 23.9482H60.7705L60.8832 24.0609L60.7705 24.1459ZM60.9662 31.981L60.8258 32.1214L60.7705 32.0639L60.8832 31.9236L60.9662 31.981ZM60.8556 22.7657V22.9911L60.7705 22.906L60.7982 22.8507L60.8556 22.7657ZM60.7705 18.7609V18.8162L60.7131 18.846L60.7705 18.7609ZM60.6578 18.9566L60.7131 19.014L60.6578 19.0715L60.6004 19.014L60.6578 18.9566ZM60.5727 19.4096V19.4649L60.4877 19.4096H60.5727ZM60.4515 35.4306V35.4583L60.4239 35.5157V35.4306H60.4515ZM60.4239 31.4259L60.3664 31.3983H60.4239V31.4259ZM60.1133 18.2399L60.2537 18.2973L60.2261 18.3526L60.1133 18.2973V18.2399ZM60.1686 20.271L60.2261 20.2433L60.2537 20.271H60.1686ZM60.2537 24.1906L60.2261 24.2183V24.1587L60.2537 24.1906ZM60.1686 20.0732V20.1859L60.0857 20.1306L60.1686 20.0732ZM59.8028 32.0278L60.0857 31.7449V31.8598L59.8028 32.1129V32.0278ZM59.7752 24.4777L59.8305 24.3927L59.8879 24.3352L59.8305 24.4203V24.5607L59.7752 24.4777ZM60.0006 24.4777H60.0283V24.5607L60.0006 24.5054V24.4777ZM59.8879 20.4709L59.8305 20.5007V20.4709L59.8879 20.4156V20.4709ZM59.8305 17.2807V17.3105H59.7752L59.8305 17.2807ZM59.7178 18.578L59.7752 18.5227L59.8305 18.41V18.5227L59.7752 18.6078H59.7178V18.578ZM59.8305 19.6414L59.7752 19.7265H59.6625L59.8305 19.6414ZM59.7752 25.4348V25.4922L59.7178 25.5475V25.4348H59.7752ZM59.4094 24.6181H59.4923L59.437 24.701H59.4094V24.6181ZM59.118 23.8184L59.1733 23.8758H59.118V23.8184ZM59.2031 25.539V25.6474H59.1733L59.2031 25.539ZM59.0904 24.9477L59.0329 25.003L58.9776 24.9477H59.0904ZM58.597 18.6737H58.7097V18.7567H58.597V18.6737ZM58.4545 14.5563H58.5119V14.6116L58.4545 14.584V14.5563ZM58.4353 18.8418H58.548L58.463 18.9821H58.4353V18.8418ZM58.2375 14.0757H58.295L58.2375 14.1331V14.0757ZM58.2099 14.9795V15.0136L58.1525 14.9859L58.2099 14.9795ZM57.1678 18.7567V18.8992L57.055 18.7567L57.3634 18.3058L57.5612 18.2782L57.3911 18.4462V18.5313L57.1678 18.7567ZM57.3911 18.8418V18.8992L57.3358 18.9268L57.3081 18.8992L57.3358 18.8418H57.3911ZM56.8849 18.5313H56.7998V18.5036L56.8849 18.3909L56.9423 18.2229L57.0827 18.0527H57.138L56.8849 18.5313ZM57.3103 17.7146H57.3932L57.3379 17.8273L57.3103 17.7146ZM57.4485 14.5882V14.5606L57.5038 14.5882H57.4485ZM57.4485 12.9251L57.5038 12.9804L57.3911 13.1229L57.4485 12.9251ZM57.3358 13.2909L57.3911 13.3483H57.3358V13.2909ZM57.3081 13.0101V13.0654L57.2784 13.0101H57.3081ZM57.3081 16.7044V16.8447L57.2784 16.7044H57.3081ZM57.1678 13.8545H57.2231V13.9119H57.1678V13.8545ZM57.2231 17.8315V17.8868L57.1678 17.9443L57.1103 17.8868L57.2231 17.8315ZM57.0253 14.1629L57.0827 14.2203L57.0253 14.2756V14.3883H56.9423L57.0253 14.1629ZM56.9912 17.236L57.0189 17.2637L56.9359 17.4594V17.6019L56.8785 17.6848V17.5444L56.8509 17.4594L56.9359 17.319L56.9912 17.236ZM56.8785 12.5571V12.7826H56.7935L56.8785 12.5571ZM56.7786 17.7146L56.8062 17.6848L56.8636 17.7699L56.8062 17.8826H56.7786V17.7146ZM56.6361 12.3849L56.6935 12.3274V12.4125H56.6361V12.3849ZM56.5808 13.5971L56.6935 13.4568L56.7233 13.5121L56.6658 13.6822H56.5659L56.5808 13.5971ZM56.7233 14.6605V14.7158H56.6935L56.7233 14.6605ZM56.4957 12.94V12.9974L56.4681 12.94H56.4957ZM56.4681 13.1101V13.2228L56.383 13.3058L56.4681 13.1101ZM56.0725 12.7145L56.1299 12.7698H56.0725V12.7145ZM55.8768 12.8847H55.9045L55.8768 12.94L55.847 12.9123L55.8768 12.8847ZM55.7343 12.9123L55.679 12.94L55.6492 12.9123H55.7343ZM54.3136 10.6962L54.3583 10.8302L54.2434 11.0003L54.1626 10.9727L54.3136 10.6962ZM54.0138 11.0982L54.1371 11.0812L54.0669 11.2938L53.9946 11.33L53.9691 11.2322L54.0138 11.0982ZM53.8011 12.3742H53.8266L53.7819 12.4189L53.8011 12.3742ZM53.7351 10.4219L53.7798 10.4665L53.7543 10.5452L53.682 10.5814L53.7351 10.4219ZM53.5927 11.2938L53.5756 11.3491L53.4969 11.3215L53.5395 11.2768L53.5927 11.2938ZM53.514 10.8217L53.4778 10.9302L53.3715 10.9833L53.514 10.8217ZM53.2098 11.4597L53.229 11.4937H53.2013L53.2098 11.4597ZM53.2205 12.2339L53.2566 12.1275L53.363 12.0744L53.3013 12.2615L53.0354 12.5295L53.0695 12.421L53.1588 12.3317L53.1418 12.2083L53.2205 12.2339ZM52.7802 9.25638L53.1184 9.30955L53.0291 9.39887L52.8951 9.35634L52.8504 9.4882L52.8695 9.61368L52.7611 9.57965L52.8143 9.32869L52.7802 9.25638ZM52.9355 11.9234L52.8461 12.102L52.793 12.085L52.8547 11.8978L52.9355 11.9234ZM52.7802 10.7728L52.693 11.0407L52.5952 10.8897L52.7015 10.8366L52.7802 10.7728ZM52.6632 9.87315H52.6377L52.5208 10.0454H52.4952L52.5208 9.96672L52.4676 9.85826L52.7441 9.83061L52.6632 9.87315ZM52.3953 8.8927L52.5016 8.83953L52.3868 8.91822L52.3953 8.8927ZM52.3953 10.1411L52.4506 10.1581L52.3783 10.1943L52.3953 10.1411ZM52.3953 10.8536L52.4506 10.8727L52.3974 11.0322L52.3698 10.9344L52.3953 10.8536ZM51.9954 11.079H52.021L51.9784 11.1237L51.9954 11.079ZM51.6594 8.31422L51.7849 8.2972L51.7509 8.40354L51.6424 8.36739L51.6594 8.31422ZM51.5275 9.25V9.22448L51.6637 9.26914L51.5382 9.37548L51.4829 9.35847L51.5467 9.26063L51.5275 9.25ZM51.7083 9.78595L51.6892 9.83912L51.653 9.76893L51.7083 9.78595ZM51.6084 8.63323L51.5552 8.61409H51.6169L51.6084 8.63323ZM51.4191 8.48223L51.6169 8.42694L51.5552 8.5269L51.4552 8.55242L51.3659 8.64174L51.4191 8.48223ZM51.351 9.40951L51.4042 9.42865L51.3787 9.50734L51.3234 9.49032L51.351 9.40951ZM51.2149 8.11643L51.2957 8.14195L51.2489 8.20788L51.1447 8.17172L51.2149 8.11643ZM51.2149 8.35675L51.1766 8.46522L51.0979 8.43757L51.2149 8.35675ZM50.9363 8.65238L51.0979 8.70554L51.0809 8.75871L50.8938 8.78636L50.9363 8.65238ZM50.8938 8.60771L50.8406 8.68002L50.7853 8.66088L50.8215 8.55454L50.981 8.51839L50.964 8.57156L50.8938 8.60771ZM50.9725 8.27806L50.864 8.24191L50.9895 8.22489L50.9725 8.27806ZM50.7045 8.01009H50.8555L50.8916 8.08027L50.8576 8.18874L50.6875 8.25041L50.7406 8.09091L50.7045 8.01009ZM50.6109 8.93736L50.8597 8.90121L50.8427 8.95438V9.01818L50.8066 9.0352L50.5939 8.96501L50.6109 8.93736ZM50.7449 9.25H50.8342V9.42652L50.764 9.46268L50.7087 9.44566L50.7534 9.31168L50.7449 9.25ZM50.4684 9.63282L50.6301 9.68599L50.5854 9.73065L50.5046 9.70513L50.4152 9.79445L50.4684 9.63282ZM50.3174 9.63282L50.2813 9.74129H50.2536L50.2196 9.66897L50.2898 9.63282H50.3174ZM50.1834 9.42014L50.1473 9.34996L50.1813 9.24149L50.2366 9.25851L50.1834 9.42014ZM50.0218 9.00967L50.0473 8.93098L50.2004 8.83103L50.1643 8.93949H50.1026L50.0218 9.00967ZM50.0409 9.49032L50.0218 9.54562L49.9729 9.52648L50.0409 9.49032ZM50.1643 8.40354L50.092 8.4397L50.109 8.2972L50.209 8.26956L50.1643 8.40354ZM50.1537 7.71659L50.1366 7.76976L50.0558 7.74424L50.1537 7.71659ZM49.992 7.66342V7.69107L49.9474 7.64641L49.992 7.66342ZM50.0197 7.85058L49.9495 7.88674L49.9665 7.83357L50.0197 7.85058ZM49.9729 8.63323L50.16 8.60771L50.0792 8.66939L50.0516 8.74808L49.9282 8.76722L49.9729 8.63323ZM49.9197 9.05859L49.8134 9.11176L49.8644 8.95012L49.9006 8.93311L49.9197 9.05859ZM49.8836 9.43078L49.8665 9.48607L49.8134 9.46693L49.8304 9.41376L49.8836 9.43078ZM49.8368 8.1377L49.7304 8.10367L49.7602 7.9952L49.8963 8.03986L49.8368 8.1377ZM49.7113 7.62302L49.773 7.61238V7.64003H49.8006L49.7666 7.74637L49.6858 7.72085L49.7113 7.62302ZM49.6943 8.38865L49.6773 8.44182L49.6411 8.37164L49.6943 8.38865ZM49.1966 8.46097L49.1413 8.35463L49.2136 8.31847L49.4263 8.38865L49.4072 8.44395L49.1966 8.46097ZM49.3753 8.55029L49.3029 8.58432L49.2498 8.5673L49.3285 8.50563L49.3753 8.55029ZM49.2838 8.10367L49.1902 8.11856L49.1328 8.02498L49.186 7.86334L49.2923 7.8995L49.2413 8.059L49.2838 8.10367ZM49.3285 7.61238L49.2753 7.59537L49.4008 7.57835L49.3285 7.61238ZM49.2434 7.35717L49.3859 7.19553L49.3412 7.32952L49.1626 7.41885L49.1094 7.40183L49.2434 7.35717ZM49.1838 8.70342H49.2094L49.1732 8.81188L49.0413 8.85655L49.0584 8.80125L49.103 8.75659L49.1838 8.70342ZM49.1307 9.12877L49.0584 9.16493V9.10325L49.1307 9.12877ZM49.1009 7.60387L49.0647 7.71234L49.0116 7.6932L49.1009 7.60387ZM48.8521 8.35463L48.9222 8.31847L48.9775 8.33549L48.8521 8.35463ZM48.9095 8.93098L48.7925 9.0118L48.8287 8.90546L48.9095 8.93098ZM48.6968 7.22956L48.8032 7.08494L48.8393 7.15725L48.9456 7.19341L48.75 7.42523L48.6692 7.39758L48.6266 7.44224L48.6968 7.22956ZM48.716 7.88886L48.6883 7.96968L48.6521 7.89737V7.86972L48.716 7.88886ZM48.6713 8.73957L48.6181 8.90121H48.4395L48.4586 8.84804L48.582 8.8289L48.6713 8.73957ZM48.4395 8.72256H48.465L48.4225 8.76722L48.4395 8.72256ZM48.3863 8.5269L48.3331 8.50775L48.431 8.39291L48.3863 8.5269ZM48.4735 7.99095L48.5543 8.0186L48.4735 8.08027L48.5288 8.09729L48.5097 8.15258L48.4033 8.11643L48.4735 7.99095ZM48.331 7.52731L48.3757 7.57197L48.3225 7.55496L48.331 7.52731ZM47.744 8.49287L47.9312 8.37589L47.8418 8.28657L47.8695 8.20575L47.8057 8.03774L47.9673 8.00158V8.44182L47.6908 8.6545L47.744 8.49287ZM47.3782 8.25254L47.3229 8.2334L47.3676 8.09941L47.5292 8.15471L47.3782 8.25254ZM47.442 8.50988L47.4229 8.56305H47.3974L47.442 8.50988ZM47.6738 8.4397L47.6292 8.57369L47.5207 8.53753L47.6738 8.4397ZM47.5824 7.63578L47.6355 7.65492L47.6164 7.70809L47.5632 7.69107L47.5824 7.63578ZM47.5101 7.31676L47.5632 7.33377L47.5271 7.44011L47.5632 7.51242L47.3144 7.54645L47.3399 7.46776L47.3931 7.48478L47.5101 7.31676ZM47.2081 6.97222L47.2634 6.99136L47.1911 7.02752L47.2081 6.97222ZM47.1017 7.47201L47.3144 7.36568L47.3676 7.38269L47.1443 7.51668L47.1102 7.62302H47.0826L47.1017 7.47201ZM46.8359 7.91864L46.889 7.93565L46.9337 7.98031L46.8082 7.99945L46.8359 7.91864ZM46.9167 8.21213L46.8274 8.30146L46.6657 8.24829H46.8444L46.889 8.20363L46.9167 8.21213ZM46.704 8.1143L46.6232 8.08878V8.06113L46.6764 8.08027L46.704 8.1143ZM46.57 6.46605L46.687 6.38523L46.6679 6.4384L46.553 6.51922L46.57 6.46605ZM46.1808 7.91013L46.1085 7.94629H46.083L46.1808 7.91013ZM45.9894 6.06622L46.0532 6.05558V6.14491L46.0086 6.27889L45.9107 6.30654L45.9894 6.06622ZM45.5641 6.78719V6.851H45.5364L45.5641 6.78719ZM45.2599 6.62768L45.3322 6.59153L45.2429 6.86163L45.1621 6.83398L45.2599 6.62768ZM45.0154 6.93181L45.0643 6.9467L45.0154 6.97222L44.9877 6.99987V6.97222L45.009 6.92969L45.0154 6.93181ZM44.9643 6.55963V6.50646L44.992 6.56175L44.9643 6.55963ZM44.9069 6.22147H44.992L44.8495 6.33419L44.7942 6.30654L44.9069 6.22147ZM44.8006 6.59366L44.9877 6.65533H44.926L44.792 6.61067L44.8006 6.59366ZM44.7368 6.69149L44.6942 6.82547L44.6666 6.72764L44.7368 6.69149ZM44.1327 6.72977L44.1668 6.79995L44.1051 6.81059L44.1327 6.72977ZM43.8626 5.12193L43.9477 5.17722L43.9201 5.23465L43.8626 5.17722V5.12193ZM43.7223 5.48773H43.8626L43.7223 5.54515V5.48773ZM43.6372 4.61363L43.6946 4.6434H43.6372V4.61363ZM43.6053 5.88969L43.6755 5.85354L43.6415 5.95988L43.5925 5.9535L43.6053 5.88969ZM43.5819 5.70254V5.75996H43.5521L43.5819 5.70254ZM43.5521 5.84503H43.5925L43.5628 5.87268L43.5521 5.84503ZM43.6096 6.63406L43.4671 6.4937L43.5521 6.43627L43.6096 6.63406ZM43.4671 4.20954V4.32226H43.4118L43.4671 4.20954ZM43.4118 5.67489L43.5245 5.61959V5.67489L43.4118 5.70254V5.67489ZM43.1013 4.37968L43.299 4.32438V4.40733H43.0736L43.1013 4.37968ZM43.3543 5.39415V5.47922L43.2416 5.53665V5.33886L43.299 5.31121L43.3543 5.39415ZM43.0736 6.10024V5.9301L42.9035 5.78973L43.0736 5.70466V5.8748L43.1587 6.01517L43.0736 6.10024ZM43.131 6.27039L43.0736 6.29803V6.27039L43.1013 6.21296L43.131 6.27039ZM43.0162 4.99432L43.0736 4.9369L43.0162 5.05174V4.99432ZM43.0736 5.10704V5.16233H43.0162L43.0736 5.10704ZM42.8758 5.24741H42.9035V5.33248H42.8758V5.24741ZM42.6504 5.30483H42.7355V5.33248H42.6227L42.6504 5.30483ZM42.7907 5.67063L42.7355 5.75571H42.7078V5.54515L42.7355 5.48773L42.7907 5.67063ZM42.4249 5.47284L42.4802 5.41755L42.4249 5.61534V5.47284ZM42.4526 6.12151L42.3696 6.20658L42.3399 6.14916L42.3696 5.98114L42.4526 6.12151ZM42.3696 5.38777H42.3399V5.30483L42.3696 5.33248V5.38777ZM42.2569 3.4992L42.3399 3.58427V3.64169H42.2569V3.4992ZM42.1144 3.21846L42.0868 3.27376L42.0294 3.21846H42.1144ZM41.7486 5.05174H41.8039V5.10704H41.7486V5.05174ZM41.6636 4.9369V5.01771L41.6359 4.96029L41.6636 4.9369ZM41.5232 5.23039H41.6636V5.25804L41.6359 5.31546V5.45583H41.5806V5.39841L41.5232 5.31546V5.23039ZM41.2127 4.49665H41.2978V4.72209H41.1829L41.1276 4.77951H41.0723L41.2127 4.49665ZM40.4789 3.19932L40.5917 3.28439V3.39711H40.5066L40.3662 3.5949L40.3088 3.56725L40.4215 3.39711L40.4789 3.28439V3.19932ZM40.5917 3.82034V3.87776L40.4513 3.90541L40.4215 3.87776L40.5917 3.82034ZM40.3662 2.1572L40.4215 2.2125L40.3662 2.24014L40.3088 2.35286L40.2259 2.26992L40.3662 2.1572ZM40.1961 3.17167L40.2259 3.19932L40.1408 3.33969H40.0834L40.1961 3.17167ZM40.2259 4.1032V4.18614H40.1897V4.13085L40.2259 4.1032ZM39.9706 4.18614V4.21592L39.9154 4.18614H39.9706ZM38.9838 2.97388H39.154V3.0866L39.0136 3.00366H38.9838V2.97388ZM39.0136 3.28439V3.33969L38.9838 3.28439H39.0136ZM38.8711 3.39711L38.9562 3.48218L38.8711 3.5949L38.8158 3.53748L38.8711 3.39711ZM38.1948 2.38264H38.3075V2.58043H38.1948V2.38264ZM37.8013 1.7446L37.8843 1.97004H37.9417V2.08276L37.8843 2.02534H37.8013V1.7446ZM37.7439 2.61871H37.8013L37.7163 2.67401L37.7439 2.61871ZM37.6035 2.44857V2.53364L37.5185 2.47834L37.6035 2.44857ZM37.1229 1.91475H37.2654V1.79352L37.3207 1.73822L37.3483 1.79352V1.96366H37.2122L37.1569 2.01896H37.1271L37.1229 1.91475ZM36.9825 1.7446V1.91475L36.9272 1.7446H36.9825ZM37.1229 2.70378V2.78673L36.9825 2.98452L36.8975 2.84415L37.1229 2.70378ZM36.8145 1.7999L36.8975 1.91475L36.8698 1.97004L36.8145 1.91475V1.7999ZM36.7018 2.59106H36.8145V2.70378H36.7018V2.59106ZM36.4466 2.84415L36.3062 2.92922V2.84415L36.2786 2.75908H36.3636L36.4466 2.84415ZM36.1361 1.7446H36.2786V1.88497L36.1361 1.97004V1.7446ZM36.2786 3.02067V3.24611L36.2211 3.3014L36.0808 3.13339L36.1361 3.07597V2.96325L36.2786 3.02067ZM36.1361 2.59531H36.0531V2.21675H36.1361V2.59531ZM35.9957 1.29798L36.0808 1.32563L36.0531 1.35328H35.9957V1.29798ZM35.9106 3.07384H36.0531V3.24398L35.9106 3.412V3.07384ZM35.6852 1.32563H35.7235L35.6958 1.35328L35.6852 1.32563ZM35.7703 2.22738V2.2529H35.6852L35.7703 2.22738ZM35.5448 2.76333V2.6974L35.6001 2.63998L35.7128 2.83777L35.6001 3.00791H35.5448L35.6001 2.7527L35.5448 2.76333ZM35.2067 2.22738H35.2343V2.2529H35.2067V2.22738ZM35.1492 2.45282H35.2343V2.53789H35.1492V2.45282ZM34.7558 2.45282L34.7834 2.39752V2.45282L34.7558 2.4826V2.45282ZM34.6431 2.62296H34.7558L34.6133 2.76333H34.3879V2.61233L34.558 2.66763L34.6133 2.58468L34.6431 2.62296ZM34.5006 1.80415H34.558V1.9743H34.5006V1.80415ZM34.2751 2.2529H34.3326L34.4155 2.22526L34.4729 2.2529L34.3879 2.36562L34.2751 2.31033V2.2529ZM34.2198 3.35245L34.022 3.52259V3.40136L34.2198 3.35245ZM34.1624 3.29715L34.105 3.24186H34.1624V3.29715ZM34.105 2.28268V2.36562L34.0497 2.3954L33.9944 2.36562L34.105 2.28268ZM33.8923 2.2529L33.9476 2.31033H33.8923V2.2529ZM34.005 2.84627V2.89094L33.9476 2.94836L34.005 2.84627ZM33.8349 3.01642L33.8923 3.07171V3.18443H33.8349V3.01642ZM33.8923 3.46729V3.63531L33.7222 3.72038V3.45879L33.8923 3.46729ZM33.5818 2.61658H33.5967V2.70165L33.5712 2.67826L33.5818 2.61658ZM33.552 2.7846H33.5818L33.552 2.84202V2.7846ZM33.6648 3.18018V2.98239L33.7222 3.06746V3.2376L33.6648 3.2929L33.5818 3.51834L33.5244 3.32055L33.6648 3.18018ZM32.9884 2.36137L33.0459 2.30607V2.221L33.1012 2.10828L33.1862 2.36137L33.4117 2.44644L33.2692 2.47622H33.1288V2.39114H32.9884V2.36137ZM33.2139 2.84202L33.1713 2.89094L33.0586 2.80799L33.1713 2.67826L33.3117 2.53789V2.62296L33.1437 2.79098L33.2139 2.84202ZM33.3266 2.95474H33.3542V3.12488L33.3266 3.18018L33.2139 3.12488L33.3266 2.95474ZM33.3542 3.40562L33.4117 3.34819V3.46304H33.3542V3.40562ZM32.5035 3.12488H32.5588V3.18018H32.5035V3.12488ZM32.2207 2.13593H32.2781L32.2207 2.16571H32.1654L32.2207 2.13593ZM31.4593 3.60341V3.66083L31.5167 3.68635V3.8012L31.4593 3.82885L31.3742 3.74377L31.3189 3.60341L31.404 3.57576L31.4593 3.60341ZM31.1786 2.7846H31.2338L31.3742 2.7293L31.2913 3.01216L31.1786 2.95474V2.7846ZM29.8663 3.75866L29.894 3.81609L29.8663 3.9288H29.7834L29.8663 3.75866ZM28.9646 3.4205H29.0773L29.0475 3.5077H28.9646V3.4205ZM28.5392 1.53193H28.6519L28.5945 1.70207H28.5392V1.53193ZM28.4265 3.44603L28.4818 3.55875L28.2989 3.65658L28.2287 3.5311L28.4265 3.44603ZM28.1436 3.05045H28.2011V3.19081H28.1436V3.05045ZM27.6928 1.5617H27.7481V1.61487H27.6928V1.5617ZM27.3546 1.5617L27.3823 1.61912H27.6077V1.83818L27.6928 1.78076V1.83818L27.7481 2.12104L27.6928 2.26141L27.8629 2.17634L27.9458 2.28906L27.7481 2.42943L27.6417 2.48685V2.28906L27.4992 2.23376L27.5843 2.00832L27.4716 1.78076L27.2738 1.66804L27.3546 1.5617ZM27.0717 3.36734L27.1015 3.42263V3.52897H26.9867L27.0717 3.36734ZM26.7059 2.60595L26.7612 2.71867V3.14402H26.5932L26.4231 3.36946H26.3657L26.3082 3.42476H26.2253L26.3657 3.10361L26.5634 2.90582L26.6187 2.67826L26.7059 2.60595ZM26.1423 1.78714H26.3657L26.5634 1.73184V1.78714L26.4209 1.87221L26.338 2.49323H26.1955V2.28906L26.338 1.9509L26.2529 1.83818L26.1402 1.86583L26.1423 1.78714ZM26.2551 2.71867L26.3401 2.60595H26.3657V2.71867L26.2529 2.88881H26.1955L26.1402 2.94411H26.0275L26.2551 2.71867ZM25.264 2.48685L25.4065 2.2529V2.06362L25.4915 2.00832L25.7446 2.09127L25.8021 1.86583H25.9148V1.97855L25.8574 2.06362L25.8021 2.28906L25.7446 2.12104L25.6319 2.31671L25.5149 2.28906L25.2597 2.71441L25.264 2.48685ZM25.4363 2.88243V2.76758L25.6596 2.54215H25.7276L25.6702 2.65486L25.5766 3.10361L25.5192 3.13126L25.4915 3.04619V2.90582L25.4363 2.88243ZM24.8982 2.31671L24.928 2.20399H24.9832L25.0407 2.37413L24.8982 2.57192V2.82501L24.8705 2.91008L24.7855 2.48472L24.8982 2.31671ZM24.8982 3.19081H24.8769V3.13552L24.8982 3.19081ZM24.2793 1.97855L24.3069 1.92325V2.2529L24.1368 2.39327L24.2793 1.97855ZM23.9411 2.04023L23.9964 2.09552L23.8837 2.34861L23.7986 2.26566L23.9411 2.04023ZM23.9135 2.94198L23.8263 3.0547V2.9994L23.8837 2.91433L23.9135 2.94198ZM22.982 3.36734L23.0394 3.33969V3.1419H23.0947V3.42263H22.982V3.36734ZM23.15 3.67784V3.81821H23.0394L23.0947 3.67784H23.15ZM22.8395 2.31671L22.8692 2.28906V2.37413H22.8395V2.31671ZM22.5375 2.37413L22.6502 2.48685L22.5651 2.59957H22.5375L22.4524 2.48685L22.5375 2.37413ZM22.48 2.91008L22.5651 2.99515L22.5375 3.33331H22.48V3.05045L22.4247 2.93773L22.48 2.91008ZM22.4524 3.8969L22.3099 3.81183L22.395 3.72676L22.4524 3.8969ZM22.1121 2.31671H22.2248L22.3078 2.48685L22.1674 2.57192V2.65486L22.2525 2.76758L22.1674 2.93773H22.1121V2.71229L22.0845 2.65486L22.1121 2.31671ZM18.9666 3.59277L19.024 3.6502L19.1091 3.76292H18.9666V3.59277ZM18.9113 3.87563L19.024 4.27122V4.35416H19.1091V4.12021H19.192V4.37968L19.1091 4.4924L19.024 4.4371L18.907 4.37968L18.9113 3.87563ZM18.8837 4.5243L18.9389 4.69232L18.8539 4.74974V5.01771H18.7412L18.6284 4.87735L18.6859 4.65191H18.8262L18.8837 4.5243ZM18.6859 5.20062L18.7986 5.11555L18.8539 5.28569L18.7986 5.42605L18.7412 5.48348V5.24741L18.6859 5.20062ZM18.6561 3.84799L18.7986 3.93306V3.98835H18.5689L18.6561 3.84799ZM18.5689 5.01771V5.07514H18.5115L18.5689 5.01771ZM18.5115 6.00667L18.5689 6.03431V6.08961L18.4838 6.03431L18.5115 6.00667ZM18.3435 6.11938L18.3987 6.08961V6.11938L18.3435 6.17468V6.11938ZM18.1733 6.03431L18.2307 6.00667V6.17468H18.118L18.1733 6.03431ZM17.748 6.11938H17.9436L17.8032 6.25975H17.7522L17.748 6.11938ZM17.5778 4.14574V4.20103H17.5204L17.5778 4.14574ZM17.6608 4.78377V4.95391H17.497L17.6608 4.78377ZM17.2992 4.59236L17.4396 4.53494L17.3269 4.33715L17.4672 4.2542L17.5523 4.33715L17.4119 4.74123L17.3566 5.01771L17.2992 4.96242V4.59236ZM16.961 4.73273L17.0185 4.6753V4.80504H16.961V4.73273ZM16.9334 5.40904L17.0185 5.29632V5.2389H17.1014L17.0185 5.49411L17.0738 5.52176H17.1865L17.2439 5.46646L17.3566 5.49411V5.86842L17.4396 5.9535L17.3566 6.20658L17.2439 6.09386L17.0738 6.23423L16.961 6.02155L16.9036 6.23423H16.8483V5.64299L16.7909 5.70041H16.6782L16.7909 5.64299L16.6229 5.50262H16.7356L16.7909 5.47497L16.6505 5.36225L16.7952 5.13681L16.9334 5.40904ZM17.1291 7.29762V7.35717H17.0738V7.29975L17.1291 7.29762ZM16.8207 7.01688V6.93181L16.8483 6.79145V6.53623L16.9036 6.50858V6.56601L17.0185 6.6213L16.961 6.79145L16.9036 7.07431L16.8207 7.15725V7.29762L16.7356 7.21467L16.8207 7.01688ZM16.7356 6.84674V6.73402L16.7909 6.67873L16.8207 6.73402L16.7356 6.84674ZM16.5952 4.65616H16.6229L16.6782 4.68381L16.6229 4.74123H16.5952V4.65616ZM16.4527 6.4618L16.5655 6.3193L16.6505 6.57451L16.5378 6.68723L16.6229 6.88502L16.5102 7.08281L16.4527 6.85525H16.34L16.3974 6.74253L16.4527 6.4618ZM16.5952 7.35717V7.44224L16.5102 7.46989L16.3677 7.38482V7.35717H16.5952ZM16.2847 5.23039H16.3698V5.28781H16.2847V5.23039ZM16.0019 7.61664V7.44862L16.1422 7.16576L16.2847 7.27848L16.2273 7.3912L16.1997 7.35717V7.69533H16.0869V7.61025L16.0019 7.61664ZM15.9742 5.92585H16.0593V5.9535L15.9742 6.03857V5.92585ZM16.1997 6.74253L16.0019 6.96797L15.9168 6.74253H16.1997ZM15.9742 7.25083V7.30613H15.9168L15.8615 7.25083H15.9742ZM15.1852 6.54474L15.2979 6.34908H15.3532L15.1852 6.57451V6.54474ZM14.93 6.85525L14.9576 6.79995L14.93 6.96797V6.85525ZM14.7045 7.16576L14.762 7.13811L14.7896 7.16576L14.762 7.25083H14.7045V7.16576ZM14.7045 7.53156L14.7896 7.44862L14.8747 7.25083H14.93V7.3912L14.762 7.75913V7.9952L14.6471 7.88248L14.7045 7.53156ZM14.0835 6.34908L14.2537 6.23423L14.3366 6.3193L14.1409 6.40437H14.0835V6.34908ZM13.6326 6.29378L13.7454 6.3512H13.6326V6.29378ZM13.5773 6.9148L13.7454 6.82973V6.93181L13.8028 6.95946L13.9155 6.90417H13.9708L14.0282 7.01688H14.1409V6.74253L14.2537 6.79995H14.3366V6.74253H14.2537L14.3111 6.54474H14.394L14.4238 6.68723H14.6216V6.91267L14.5067 6.85525L14.4238 6.96797L14.3111 7.19341L14.1409 7.13811L13.8581 7.08281L13.8028 7.53156V7.70171L13.7177 7.84207L13.773 7.98457L13.6901 8.03986L13.5773 7.95479L13.5199 7.9952L13.4072 7.91013L13.5773 7.71234V7.68469L13.773 7.4869L13.7177 7.35717V7.2168L13.5773 7.07643L13.6326 7.01901L13.5773 6.9148ZM14.6216 7.30825L14.4791 7.56985H14.4238L14.3366 7.62514V7.54007L14.5365 7.25934L14.6216 7.30825ZM13.9708 7.30825L13.9155 7.45075V7.25083L13.9708 7.30825ZM13.5773 10.5792V10.6367L13.4923 10.7494H13.4646V10.5792H13.5773ZM13.5773 7.22318L13.5199 7.25083H13.437V7.16576H13.5199L13.5773 7.22318ZM13.4923 6.96797H13.437V6.93181H13.4923V6.96797ZM13.4072 6.68723L13.437 6.74253H13.3498L13.4072 6.68723ZM13.2945 6.85525H13.3498L13.4072 6.91267H13.2945V6.85525ZM13.3498 7.30613V7.35717L13.2945 7.38482L13.2094 7.35717L13.3498 7.30613ZM13.1796 6.79995H13.2647L13.2073 6.85525H13.1796V6.79995ZM13.1796 6.96797H13.2924V7.16576H13.2647L13.1796 7.08281V6.96797ZM13.0414 9.05859L13.2945 8.8055H13.3519V8.97565L13.4923 9.18832L13.4072 9.38611L13.3519 9.33082V9.18832L13.2094 9.05859H13.1265V9.59454L13.0414 9.70726V9.73703H13.2094V9.8774L12.967 10.0156L12.8819 10.1007H12.7543V9.95822L13.0669 9.39462L12.9797 9.31168L13.0414 9.05859ZM13.2094 10.1581V10.4686L13.0988 10.5814L12.8436 10.3559L13.1796 10.1007L13.2094 10.1581ZM12.6479 9.14153L12.816 9.05646V9.14153L12.7309 9.19683V9.25425H12.816V9.33932L12.6479 9.2819V9.14153ZM12.7309 10.5473V10.6324L12.5905 10.7728V10.6877L12.7309 10.5473ZM12.5416 9.81785L12.4863 9.95822L12.4289 9.87527V9.76255L12.2885 9.73491L12.5416 9.48394L12.6267 9.76681L12.5416 9.81785ZM12.4778 8.71831V8.83103H12.4204V8.71831L12.5331 8.57794V8.60559L12.4778 8.71831ZM12.5416 9.19683V9.25425H12.4778L12.5416 9.19683ZM12.2587 7.45075L12.3736 7.30825V7.53369H12.2587V7.45075ZM12.4863 7.81655V7.87398H12.3736V7.81655H12.4863ZM12.2587 8.38015L12.3162 8.26743V8.15471H12.4289L12.4863 8.26743V8.09941H12.5416V8.29508L12.4289 8.32273L12.3162 8.52052H12.2587V8.38015ZM12.2587 10.0156H12.4289V10.1007L12.3162 10.1858H12.2587V10.0156ZM12.1758 9.76255H12.0354L11.9227 9.93057H11.8653L11.978 9.53712H12.0631L12.1758 9.76255ZM12.1482 8.97352H12.0631L11.9227 9.11389V9.00117L12.1482 8.88845V8.97352ZM11.9227 7.59111L11.978 7.53369V7.59111L11.9227 7.64641V7.59111ZM11.9227 8.21213V8.26743L11.8653 8.29508V8.20788L11.9227 8.21213ZM11.8376 7.92927H11.8653L11.8376 8.04199V7.92927ZM11.8653 11.1428H12.0631V11.2003L11.978 11.313H11.8376L11.7526 11.5384V11.7086H11.6122V11.5384L11.6398 11.4257V11.2577L11.8653 11.1428ZM11.6122 7.52731L11.6951 7.44437V7.81017H11.6122V7.52731ZM11.6122 8.14833H11.7249L11.6122 8.51413L11.5271 8.37377L11.6122 8.14833ZM11.4718 9.1628L11.5548 9.24787V9.33294L11.3846 9.36059L11.4718 9.1628ZM11.4718 11.3066V11.3619L11.4421 11.3066H11.4718ZM11.2166 8.2887L11.2464 8.20575V8.09303H11.3017L11.3293 8.30571V8.73107L11.2464 8.87143L11.357 8.89908L11.2464 9.09687H11.2166V8.97352L11.1528 8.63323L11.2166 8.2887ZM10.6445 12.4402L10.7019 12.2998L10.7572 12.1318L10.8147 12.2147H10.9274L11.0103 12.1318L10.9827 12.0744L11.0954 11.934V11.9042H10.9827L10.8147 11.9616V11.9042L10.9274 11.7086L11.1528 11.6788L11.2081 11.5682L11.3761 11.4257H11.4633L11.2081 11.7086L11.2379 11.9042L11.2081 11.934L11.1252 12.1871L10.9274 12.3572L11.0103 12.4976L11.2081 12.4402L11.2379 12.1594L11.2932 12.2147L11.2379 12.6103L11.0954 12.6954L10.8147 12.5827V12.4125H10.7572L10.6445 12.5827V12.4402ZM10.9274 12.8081V12.8357L10.87 12.8081H10.9274ZM10.2021 12.6954H10.2574V12.7507L10.2021 12.8081V12.6954ZM9.87675 14.3585L9.8491 14.3862L9.87675 14.4436H9.75553L9.8406 14.3011L9.87675 14.3585ZM9.72788 13.3121H9.77679V13.3419L9.71937 13.3972L9.72788 13.3121ZM9.36207 14.3564H9.30465L9.19193 14.299L9.30465 14.0459L9.47266 14.131L9.36207 14.1884L9.41737 14.2437L9.47266 14.1884H9.53009L9.47266 14.299L9.53009 14.3564L9.64281 14.0182H9.70023V14.1629L9.58538 14.2479V14.3032H9.70023L9.72788 14.3606L9.70023 14.3883V14.4734H9.53009L9.36207 14.3564ZM9.41737 15.1731V15.2028L9.36207 15.1731H9.41737ZM9.58538 13.5099L9.70023 13.6227L9.53009 13.763L9.47266 13.7375L9.53009 13.6822V13.5695L9.58538 13.5099ZM9.56412 13.3993L9.59176 13.344H9.64919L9.59176 13.3993H9.56412ZM9.56412 13.8502L9.62154 13.9629L9.53647 14.0757L9.47904 14.0204V13.9629H9.36845V13.8502L9.42375 13.9076L9.56412 13.8502ZM9.36207 13.7375H9.33442L9.36207 13.6822V13.7375ZM9.53009 13.2313L9.58538 13.0335V13.1186L9.70023 13.2313L9.33442 13.344L9.30465 13.259L9.33442 13.2313L9.24723 13.1739V13.1186H9.36207L9.47266 13.0888V13.1186L9.53009 13.2313ZM9.16428 12.9761L9.24723 12.9208L9.30465 12.9485V13.0335H9.24723L9.16428 12.9761ZM9.07921 11.6788H9.10686V11.8766H9.07921V11.6788ZM9.07921 12.3572H9.13876V12.4976L9.25148 12.5827H9.36633L9.33868 12.638L9.13876 12.6954L9.05582 12.8932L9.16854 13.1739L8.88567 13.344V13.4568L8.85803 13.5121V13.2313L8.97075 12.9485L8.90907 12.8868L8.96649 12.8017H9.07921V12.3572ZM8.90907 13.6333V13.6907L8.88142 13.746V13.6333H8.90907ZM8.88142 12.5061H8.96649V12.7315H8.88142V12.5061ZM8.79635 12.0807L8.85377 12.1084V12.1382H8.79635V12.0807ZM8.82612 13.125L8.60069 13.2101L8.48797 13.125L8.65598 13.0952L8.74105 13.0399L8.82612 13.125ZM8.74105 15.7473V15.8302L8.7134 15.9153V15.8877L8.74105 15.7473ZM8.68576 14.7881L8.51561 14.9285L8.4029 14.8009L8.48797 14.6605L8.51561 14.8307H8.57091L8.62833 14.6882L8.68576 14.7881ZM8.65598 12.7294L8.51561 12.8698V12.7847L8.62833 12.6443L8.65598 12.5316V12.7294ZM8.62833 12.3636V12.4614H8.57091L8.48797 12.2913L8.62833 12.3636ZM8.28805 12.4189L8.37525 12.3338L8.28805 12.2998L8.4029 12.1871L8.43054 12.3572L8.4029 12.4125L8.48797 12.4976L8.34547 12.6954H8.28805L8.34547 12.5252L8.28805 12.4189ZM8.28805 13.0123H8.34547L8.4029 13.0399L8.34547 13.0952H8.28805V13.0123ZM8.34547 13.3121V13.3419H8.28805L8.34547 13.3121ZM8.28805 13.6248L8.34547 13.5397V13.6248L8.28805 13.7375V13.6248ZM8.2604 14.5882L8.20511 14.6733H8.17746V14.6159L8.2604 14.5882ZM8.12003 13.5737H8.09239L8.17746 13.544H8.20511L8.12003 13.5737ZM8.09239 12.723L8.12003 12.5252L8.17746 12.5827V12.723H8.09239ZM8.09239 12.2722L8.03496 12.1871L8.12003 12.102L8.17746 12.1594L8.09239 12.2722ZM7.97967 11.9042L8.12003 11.9616L8.03496 12.0744L7.92224 11.9616L7.97967 11.9042ZM7.97967 12.5252L7.92224 12.638L7.97967 12.723L7.8946 12.8081L7.83717 12.6741L7.92224 12.4784L7.97967 12.5252ZM7.86269 12.1318L7.89034 12.0744V12.1318L7.86269 12.1871V12.1318ZM7.74998 12.3572H7.83292L7.74998 12.4976H7.69468L7.74998 12.3572ZM7.6649 12.723H7.74998V12.8081L7.69468 12.8634L7.6649 12.8081V12.723ZM7.65002 12.9485L7.67767 13.0059V13.1186L7.65002 13.1739L7.56495 13.0335L7.65002 12.9485ZM7.79038 13.344L7.93075 13.1739L7.86269 13.1186L7.89034 13.0888H8.08813L8.03071 13.344V13.4568H7.86269L7.91799 13.3993V13.344L7.97541 13.259H7.91799L7.77762 13.4291L7.57983 13.344L7.52454 13.4844L7.46711 13.3993L7.49689 13.2037L7.79038 13.344ZM7.65002 14.0204V14.2182L7.47987 14.3309V14.1629L7.56495 13.9651L7.65002 14.0204ZM7.47987 12.6954V12.723L7.36716 12.7783L7.47987 12.6954ZM7.41607 14.8392L7.24593 14.9795L6.99284 15.0923L7.04814 15.0072V14.8392L7.21828 14.9221V14.8392H7.41607ZM7.22466 15.29H7.13959L7.07579 15.2262H7.19063L7.22466 15.29ZM6.77378 16.0217V15.6835H6.83121L6.85673 15.7409H6.97158L6.99922 15.5984L7.05452 15.6835L6.91415 15.9642L6.85673 16.1067H6.83121V16.0217H6.77378ZM6.96519 14.5882H6.82483V14.3011H6.90777L6.85035 14.4712L6.96519 14.5882ZM6.90777 15.2092L6.96519 15.2943H6.90777L6.82483 15.2092H6.90777ZM6.96519 15.4623V15.407L7.04814 15.4623H6.96519ZM7.30335 13.9736L7.24593 14.031V14.1437L7.21828 14.0586L7.24593 13.9736H7.30335ZM7.24593 13.1845V13.2696L7.22466 13.2313L7.24593 13.1845ZM7.22466 13.3121V13.5376L7.19701 13.5674L7.11194 13.5376L7.22466 13.3121ZM6.97158 13.0314H6.99922L6.97158 13.0867V13.0314ZM6.90777 13.7375H6.96519V13.6822H7.19063L7.22466 13.9076L7.13959 13.9629L7.08217 14.0757L6.99922 14.1607V13.8502H6.97158L6.8865 13.9629H6.79931L6.90777 13.7375ZM6.03367 14.5265V14.4436L6.23146 14.2458V14.1331L6.31653 13.8502H6.39947L6.45689 14.1905H6.48454L6.62704 14.2734L6.7674 14.1905V14.3011L6.65256 14.4712L6.59726 14.3862H6.45689V14.5265L6.23146 14.5882L6.28675 14.7562L6.20381 14.8434L6.14639 14.7562L6.00602 14.6456L6.09109 14.5882V14.5308L6.03367 14.5265ZM6.54197 15.5708L6.48454 15.5155L6.42925 15.5984L6.34418 15.8813H6.2591V15.6835H6.23146L6.20381 15.7409H6.14639V15.5708L6.23146 15.5155V15.5984L6.2591 15.5708L6.37182 15.5155V15.2262L6.42925 15.1688V14.9221L6.48454 14.8945L6.54197 14.9221L6.48454 15.0072V15.205L6.62704 15.3453V15.4028L6.59726 15.4581V15.5708H6.54197ZM6.59726 15.8239V16.0217H6.54197L6.48454 15.9642L6.54197 15.9089L6.59726 15.8239ZM5.97837 16.8873H6.00602L5.92095 17.0574L5.83588 17.0298L5.97837 16.8873ZM5.80823 16.5023L5.92095 16.4449H6.00602L5.97837 16.5023H5.80823ZM5.94859 17.6848L6.00602 17.7699L6.09109 17.6295V17.8549H5.92095L5.86565 17.7699L5.94859 17.6848ZM6.14639 15.4581L6.03367 15.5155V15.29L6.14639 15.4581ZM6.03367 15.205L6.14639 15.1199V15.1752L6.03367 15.205ZM6.09109 17.0106V16.9532L6.14639 17.0106H6.09109ZM6.20381 17.353L6.14639 17.4083V17.2679L6.20381 17.353ZM6.14639 18.0293H6.23146L6.09109 18.1697L6.14639 18.0293ZM6.20381 17.0702H6.23146V17.1829L6.20381 17.0702ZM6.59726 15.1242L6.62704 15.0667V15.1242H6.59726ZM6.59726 14.786L6.62704 14.7562V14.786H6.59726ZM6.00602 15.9685V16.2237L5.72316 16.3641L5.80823 16.4491L5.69551 16.6193V16.2769L5.8933 16.1918L6.00602 15.9685ZM5.97837 15.7558L5.86565 15.8388H5.78058L5.72316 15.7835L5.78058 15.6431L5.69551 15.6133V15.5857L5.97837 15.6133V15.7558ZM5.64021 14.8541L5.92095 14.7116L5.78058 14.9944H5.80823V15.0774H5.78058V15.1348L5.80823 15.1901L5.86565 15.1348H5.92095V15.1901L5.80823 15.2752L5.69551 15.2199V15.1348L5.64021 15.0136V14.8541ZM5.61044 17.1382H5.78058V17.2509L5.61044 17.1935V17.1382ZM5.78058 17.7762V17.8613L5.64021 18.0038V17.889L5.78058 17.7762ZM5.69551 18.1144V18.0315L5.86565 17.974L5.69551 18.2293H5.61044L5.47007 18.342L5.41477 18.3122V18.1144L5.52749 18.0315L5.61044 18.1144H5.69551ZM5.80823 18.3973V18.5674H5.7508L5.78058 18.3973H5.80823ZM5.52324 18.729V18.8418L5.46582 18.7865V18.729H5.52324ZM5.46582 16.783L5.52324 16.7277V16.783H5.46582ZM5.46582 14.8945L5.54876 15.0072H5.46582V14.8945ZM5.38075 15.4028H5.46582V15.4581L5.41052 15.5708L5.38075 15.5155V15.4028ZM5.38075 18.0251V18.0804L5.24038 18.2229V18.108L5.32545 18.0251H5.38075ZM5.38075 19.3777V19.7159H5.32545V19.433L5.38075 19.3777ZM5.31056 19.8286V19.886L5.25527 19.9413L5.31056 19.8286ZM5.25527 16.6384H5.31056L5.25527 16.6661V16.6384ZM5.25527 17.9358L5.19784 17.8783V17.8507L5.25527 17.8783V17.9358ZM5.08512 15.5112L5.1149 15.4538H5.19784L5.08512 15.5112ZM5.17019 19.9945L5.25527 20.1072H5.09788V20.0519L5.17019 19.9945ZM5.08512 17.7103H5.09788V17.7954L5.06811 17.8507L5.08512 17.7103ZM5.08512 20.3326H5.17019V20.4454L5.08512 20.5028V20.3326ZM5.17019 20.5581V20.5857H5.09788V20.5581H5.17019ZM4.76611 20.3305H4.79376L4.76611 20.3582H4.70868L4.76611 20.3305ZM4.65126 20.5007H4.70868L4.65126 20.5559V20.5007ZM4.59596 20.6687V20.724L4.56832 20.7814L4.59596 20.6687ZM4.48325 17.6784L4.54067 17.7635H4.48325L4.42582 17.6784H4.48325ZM4.3131 16.8277H4.37053V16.9978H4.3131V16.8277ZM3.86223 21.6066L3.97495 21.5513L4.06002 21.6916L3.97495 21.8341L3.9473 21.8044L3.84947 21.8341L3.8048 21.8044L3.9473 21.664L3.86223 21.6066ZM3.15826 21.4939L3.21356 21.6066H3.15826V21.4939ZM3.18378 33.4293V33.4591L3.15614 33.5144V33.4293H3.18378ZM2.75843 21.4917L2.81585 21.4364V21.6066L2.75843 21.664L2.70739 21.6066L2.75843 21.4917ZM2.65847 22.6466V22.5062L2.77332 22.3935L2.82861 22.5913L2.91368 22.704L3.0264 22.6466L2.96898 22.8167H2.88604L2.82861 22.7593L2.68825 22.8741L2.65847 22.9869H2.60318L2.54575 22.8826L2.65847 22.6466ZM1.98641 25.9175L2.1289 25.6921L2.07148 25.6474H1.95876V25.8601H1.84604V25.6474L2.07148 25.422L2.1289 25.59L2.26927 25.6474L2.1842 25.7602L2.07148 25.9282L1.98641 25.9175ZM2.04383 27.6955L1.98641 27.9486H1.90772V27.8636L1.99279 27.6955H2.04383ZM1.93111 24.114L2.1289 23.7461L2.1842 23.7185V23.6334H2.07148L1.84604 23.7461V23.5781L2.01618 23.2123H2.1204L2.17569 23.325V23.3527H2.23312L2.34583 23.2676L2.40113 23.1251V23.2123L2.57127 23.3527V23.5207L2.51385 23.5781L2.40113 23.8312L2.51385 23.9439L2.45855 24.0843V24.2544L2.40113 24.4798L2.28841 24.3671V24.1417H2.09913L1.98641 24.5373V24.5841L1.84604 24.499L2.01618 24.1906L1.93111 24.114ZM2.29692 26.0026L2.40964 25.9175V25.975L2.29692 26.0303V26.0026ZM2.24162 24.6479V24.5841H2.29692V24.6394L2.24162 24.6479ZM1.95876 25.3816V25.4114L1.90772 25.3816H1.95876ZM2.1289 26.764L2.24162 26.4556H2.40964V26.5109L2.35434 26.5386L2.29692 26.6811L2.24162 26.7364L2.1842 27.0447H2.1204L2.1289 26.764ZM2.40964 27.0171L2.49471 27.0447L2.40964 27.1298V27.2447L2.35434 27.4127L2.24162 27.1362L2.40964 27.0171ZM2.39688 33.0061L2.56489 32.8381V32.9785L2.42453 33.1188H2.39688V33.0061ZM2.40964 26.9618L2.66272 26.596V26.6811L2.40964 26.9618ZM2.66272 27.6381H2.6925L2.77757 27.9486L2.66272 28.1741V27.6381ZM2.75843 25.0732L2.70313 24.8754H2.59041V24.7329L2.70313 24.7904L2.8435 24.6479L2.90092 24.5649H2.95622L2.81585 24.8754V24.9881L2.75843 25.0732ZM2.67336 24.1417V23.9715L2.73078 23.9439L2.67336 24.1417ZM1.85668 22.9018L1.91197 22.7593V22.5062L2.05447 22.3361L2.22461 22.4211L2.30755 22.2233H2.36498L2.42027 22.3084L2.19483 22.5062H2.07148L1.98641 22.5913L2.07148 22.6466L1.98641 22.704L2.07148 22.7593L2.1842 22.8741H2.35434V23.0953H2.1842L2.1289 22.9847H2.01618L1.79075 23.3229L1.76097 23.1804L1.95876 22.9847L1.85668 22.9018ZM2.36498 22.5913L2.30755 22.6466L2.25226 22.5913H2.36498ZM2.25226 22.704V22.7593H2.1842L2.25226 22.704ZM1.77161 24.1927L1.80138 24.1353V24.1927L1.77161 24.248V24.1927ZM1.6759 25.6474H1.70568L1.6759 25.7027V25.6474ZM1.6759 26.8597L1.48236 27.2447V27.0447L1.6759 26.8597ZM1.48236 24.9881L1.53979 24.8754L1.59721 25.0434L1.48236 25.1009V24.9881ZM1.45684 24.7053V24.6479H1.48236V24.7053H1.45684ZM1.53979 24.4246L1.45684 24.5373V24.3118H1.62486V24.4246H1.53979ZM1.45684 23.861L1.56743 23.7461L1.62486 23.8035V24.0843H1.56318L1.53553 24.029L1.45259 23.9715L1.45684 23.861ZM1.39942 24.0843L1.45684 24.1417H1.39517L1.39942 24.0843ZM1.39942 25.975L1.53979 25.807L1.62486 25.8623L1.39942 26.0877H1.36539L1.39942 25.975ZM1.36964 26.5109H1.39942L1.36964 26.5386V26.5109ZM1.39942 27.4701H1.36539L1.31009 27.4127L1.36539 27.3574L1.39942 27.4701ZM1.36964 29.7245V29.7819L1.31435 29.7245H1.36964ZM1.22928 26.747L1.31435 26.6343V26.7746H1.22928V26.747ZM0.971937 25.9175L1.08466 25.7495L1.16973 25.8899L0.971937 26.0303V25.9175ZM1.16973 28.9078V28.9631H1.13995L1.16973 28.9078ZM0.971937 26.4258H1.02723V26.764H0.944289L0.801795 26.7108L0.971937 26.4258ZM0.971937 27.2447V27.5807H0.916641V27.2447H0.971937ZM0.859218 28.2591V28.2868H0.801795L0.859218 28.2591ZM0.746499 27.3489H0.801795L0.746499 27.4042H0.689076L0.746499 27.3489ZM0.801795 28.4123V28.4973L0.746499 28.61V28.4123H0.801795ZM0.140367 34.4161L0.338158 34.2184L0.225438 34.1354L0.280735 33.9929V33.7398L0.423229 33.5718L0.591244 33.6548L0.676315 33.4591H0.731611L0.789034 33.542L0.563596 33.7398H0.450877L0.365806 33.8249L0.450877 33.8802L0.365806 33.9376L0.450877 33.9929L0.563596 34.1056H0.731611V34.3332H0.563596L0.506173 34.2184H0.393454L0.168015 34.5565L0.140367 34.4161ZM0.731611 33.8249L0.676315 33.8802L0.631653 33.8249H0.731611ZM0.631653 33.9419V33.9972H0.563596L0.631653 33.9419ZM0.96981 34.7586L0.912387 34.816L0.799668 35.0691L0.912387 35.1818L0.854964 35.3222V35.4923L0.799668 35.7177L0.686949 35.605V35.3796H0.478525L0.365806 35.7752V35.8305L0.225438 35.7454L0.393454 35.4306L0.308383 35.3456L0.506173 34.9776L0.563596 34.95V34.867H0.450877L0.225438 34.9776V34.8096L0.393454 34.4438H0.506173L0.563596 34.5544V34.5799H0.631653L0.742245 34.4948L0.799668 34.3545V34.4395L0.96981 34.5799V34.7586ZM1.36326 34.0546H1.26969L1.21439 33.9972L1.0719 34.1099L1.04425 34.2226H0.986824L0.929401 34.1099L1.04212 33.8845V33.7441L1.15484 33.6314L1.21226 33.8292L1.29733 33.9419L1.41005 33.8845L1.36326 34.0546ZM1.53128 33.7441L1.50363 33.7739V33.7164H1.53128V33.7441ZM1.48236 29.246H1.45259L1.53553 29.1035L1.56318 29.1332L1.48236 29.246ZM1.48236 28.4846L1.42707 28.4271L1.56743 28.2868L1.48236 28.4846ZM1.62486 27.6955L1.68015 27.5807L1.73758 27.4977L1.68015 27.6955H1.62486ZM1.97152 40.62V40.7348L1.91623 40.8177L1.86093 40.7625V40.5923L1.72056 40.2818L1.86093 40.1138V39.9436L1.90772 39.8969V39.6842L1.96302 39.5991L2.04809 39.9096L1.90772 40.1414V40.5349L1.97152 40.62ZM2.07148 27.5807V27.2447H2.1204V27.3L2.17569 27.5254L2.1204 27.5807H2.07148ZM2.1842 28.0337L2.29692 27.9486L2.24162 28.0911H2.1842V28.0337ZM2.35434 29.4714V29.5267H2.29692L2.35434 29.4714ZM2.31181 39.4928L2.25438 39.5502L2.19909 39.4928L2.31181 39.295V39.4928ZM2.39688 33.374L2.45217 33.289H2.5096V33.374L2.33945 33.542L2.39688 33.374ZM2.62232 33.6548L2.70739 33.4293L2.82011 33.3166L2.70739 33.7696L2.5096 33.8802L2.45217 33.8249L2.62232 33.6548ZM2.54575 40.1095H2.48195V39.8969L2.53724 39.7841L2.54575 40.1095ZM2.74354 34.4119H2.63082V33.9865H2.74354V34.4119ZM2.82861 40.3669L2.88391 40.1691L2.96898 40.2542L2.82861 40.3669ZM2.85626 34.531L2.79884 34.4459L2.88391 34.3609L2.99663 34.1354H3.0817L2.85626 34.531ZM3.15826 33.9419H3.18378V33.9972H3.09871L3.15826 33.9419ZM3.58362 40.1733H3.35393L3.15826 40.0053L3.3837 39.7225V39.7799L3.35393 39.9202L3.3837 40.0053H3.58149L3.58362 40.1733ZM3.44112 33.9695V34.3672L3.49855 34.4523V34.5629L3.44112 34.6501L3.38583 34.5927V34.4225L3.24546 34.112L3.38583 33.944V33.776L3.44112 33.7186V33.5165L3.49855 33.4315L3.58362 33.742L3.44112 33.9695ZM3.72399 33.3209L3.83671 33.1231V33.3209L3.77928 33.3783L3.72399 33.3209ZM3.97707 39.1036L3.92178 39.3269H3.80693L3.77928 39.2163L3.97707 39.1036ZM3.92178 37.2979V37.2682H3.97707V37.2979H3.92178ZM4.20251 40.3988L4.14509 40.4562V40.3435L4.20251 40.2861V40.3988ZM4.14509 40.2308H4.08979V40.1095H4.20251L4.14509 40.2308ZM4.31523 39.8926H4.20251L4.08979 40.0053H3.97707L3.86435 40.0606H3.80693L4.0345 39.8309L4.20251 39.7756L4.28758 39.6906H4.31523V39.8926ZM4.31523 36.4791L4.11531 36.7067L4.0345 36.4749L4.31523 36.4791ZM4.08979 35.7752V35.6624H4.17486V35.6901L4.08979 35.7752ZM4.06002 33.9419H4.00472V33.7164L4.06002 33.6037V33.9419ZM4.08767 36.9874V37.0427H4.0345L3.97707 36.9874H4.08767ZM4.65339 48.5209L4.59596 48.4082H4.65339V48.5209ZM4.8214 47.7659V47.7383L4.87883 47.6809L4.8214 47.7659ZM5.01919 47.4554V47.3703L5.04684 47.3151L5.07449 47.23V47.4278L5.04684 47.5128L5.01919 47.4554ZM5.18721 48.5847L5.07449 48.4422L5.18721 48.3572V48.5847ZM5.09788 45.9497L5.04046 45.8646H5.18083L5.09788 45.9497ZM5.40839 48.7421L5.35097 48.7995V48.657H5.40839V48.7421ZM5.91457 44.7374H5.85927V44.7098H5.91457V44.7374ZM5.91457 43.9207H5.80185L5.94221 43.808L5.91457 43.9207ZM5.99964 45.1968L6.08471 45.0288V45.1415L5.99964 45.1968ZM6.08471 48.6656V48.723L6.02729 48.6656H6.08471ZM6.16765 48.9761H6.11874L6.09109 48.891H6.17403L6.16765 48.9761ZM6.25272 46.0985H6.16765V45.9582H6.25272V46.0985ZM6.33779 43.8165L6.22508 43.9292V43.9016L6.31015 43.7591L6.33779 43.6464H6.39309L6.33779 43.8165ZM6.62066 45.0926L6.53559 45.0351L6.47816 44.9501H6.53559L6.62066 45.0351V45.0926ZM6.73338 44.6672H6.67595L6.59088 44.7246L6.53559 44.6672L6.67595 44.5268L6.73338 44.6396V44.6672ZM8.60919 51.3623V51.307H8.66449V51.3623H8.60919ZM8.60919 49.8736V49.68H8.77721V49.848L8.60919 49.8736ZM8.89631 53.7209H8.78359L8.67087 53.438V53.353L8.75381 53.2403L8.83889 53.3253L8.75381 53.4657L8.89631 53.5508V53.7209ZM9.00903 54.1697H8.9516V54.1463L9.00903 54.091V54.1697ZM9.17704 54.4802L9.14939 54.5652L9.0941 54.4802L9.17704 54.3674V54.4802ZM9.0941 53.8038L9.06645 53.7486V53.6635H9.00903V53.4933H9.06645L9.17704 53.7486L9.0941 53.8038ZM9.0941 48.304H9.03668V48.1913H9.14939L9.0941 48.304ZM9.14939 48.3614V48.4741L9.0941 48.5316V48.4188L9.14939 48.3614ZM9.20682 53.891L9.43226 53.806L9.23447 54.3589V54.2462L9.28976 54.0782L9.20682 53.891ZM9.28976 50.2521V50.1054H9.48755L9.34718 50.2458L9.28976 50.2521ZM9.77679 54.5908L9.6343 54.5355V54.4227L9.83209 54.3653L9.77679 54.5908ZM10.0597 54.2526H9.94694L9.79806 53.9336H9.68534L9.6024 54.1314L9.71299 54.0187V54.159L9.79806 54.2164L9.71299 54.3292L9.6024 54.1888H9.51733L9.4599 54.2441H9.40248L9.65769 53.7379H9.71299L9.77041 53.7932L9.82571 53.6528L9.88313 53.6231V53.6528L9.99585 53.7379L9.91078 53.8506V53.9336L9.99585 53.8783L10.1086 54.159L10.0597 54.2526ZM9.66407 50.1649L9.71937 50.0246L9.77679 49.9948V50.1649H9.66407ZM9.88951 50.1649V50.1054L9.94694 50.0777V50.1054L9.88951 50.1649ZM10.115 50.0799L10.0299 50.0246L10.0597 49.9948L10.115 50.0246V50.0799ZM12.6245 54.997L12.5437 55.1437L11.9376 55.4202L12.1503 55.0267L12.3736 55.1501L12.514 55.0672L12.6245 54.997ZM12.5693 54.5142L12.5841 54.4887L12.6097 54.5036L12.5948 54.527L12.5693 54.5142ZM12.1439 55.7328L12.0673 55.7562L12.0865 55.6052L12.163 55.5818L12.1843 55.6605L12.1439 55.7328ZM12.6969 56.3709L12.5246 56.273L12.6798 56.1667L12.7798 56.222L12.6969 56.3709ZM12.833 56.1242L12.9244 56.0752L12.8819 56.1497L12.833 56.1242ZM13.1392 56.6771L13.0861 56.7154L13.0499 56.6622L13.1669 56.6282L13.1392 56.6771ZM13.3519 56.3092L13.3264 56.2943L13.354 56.2454L13.3923 56.2348L13.3519 56.3092ZM14.058 57.1854H13.9963L14.0644 57.0621L14.1133 57.0876L14.058 57.1854ZM14.2111 56.2709L14.2452 56.3858L14.0665 56.7048L14.1154 56.7324L13.9984 56.8281H13.8964L13.705 56.8834L13.673 56.7686L13.7688 56.5963H13.605L13.7135 56.4006L13.6092 56.4708L13.4582 56.4517L13.4093 56.424L13.4859 56.4028L13.5008 56.3772L13.454 56.2879L13.8496 55.8626L13.7517 55.8073L13.5731 55.8392L13.4221 55.82L13.4455 55.8966L13.1031 56.5134L13.0265 56.5346L12.9712 56.6325L12.9223 56.6069L13.0074 56.3943V56.2688L13.1116 56.1965L13.2753 55.9009L13.2541 55.8243L13.1116 55.9072L12.9606 55.8881L12.8564 55.9583L12.8075 55.9328H12.682L12.7224 55.8583L12.8627 55.8392L12.9585 55.6669V55.5648L12.699 55.7435L12.8627 55.4478L12.9776 55.4138L13.1243 55.4968L13.1669 55.4223L13.1967 55.3117L13.2519 55.2118L13.3668 55.1799L13.2881 55.4223L13.1243 55.718L13.2243 55.7732L13.3328 55.5755L13.4306 55.6308L13.5157 55.7094H13.5795L13.6603 55.5627L13.8326 55.6584L14.0027 55.5265L14.1409 55.5712L14.2218 55.4223L14.2983 55.4011L14.3281 55.2883L14.4025 55.3287L14.4791 55.3075L14.5535 55.3479L14.2941 55.5265L14.2452 55.4989V55.6882L14.343 55.7435L14.1601 55.8987L14.1813 55.9753L14.2345 55.9413L14.3579 56.0093L14.2877 56.1305H14.1622L14.1218 56.205L14.2111 56.2709ZM12.7224 55.2458L12.7734 55.2118L12.7479 55.2607L12.7224 55.2458ZM13.4519 55.3287L13.4774 55.2798L13.5029 55.2926L13.4753 55.3415L13.4519 55.3287ZM13.5306 55.2437L13.5837 54.997L13.6837 55.0523L13.605 55.2096L13.5306 55.2437ZM13.9814 55.3011L14.0644 55.1522L14.1303 55.384L13.9814 55.3011ZM14.5238 56.2454H14.4833L14.3855 56.1901H14.4472L14.5238 56.2454ZM14.5578 56.8834L14.5089 56.8558L14.5365 56.8069H14.6003L14.5578 56.8834ZM14.8194 56.4134L14.7875 56.5261L14.6684 56.6835L14.7279 56.7494L14.7003 56.8005L14.6258 56.7579H14.5004L14.2877 56.4836L14.3281 56.4092L14.4514 56.4772L14.4366 56.5665L14.7364 56.3134L14.8449 56.1157L14.9449 56.1709L14.8194 56.4134ZM15.0937 56.1263L15.0703 56.1135L15.0342 56.0604L15.1086 56.1008L15.0937 56.1263ZM15.3064 56.9557L15.3894 56.809L15.5616 56.9047L15.3064 56.9557ZM15.4851 56.3453H15.5467L15.534 56.3709L15.4851 56.3453ZM15.7849 56.7367H15.6829L15.6573 56.7218L15.7381 56.6367L15.8658 56.5814L15.7849 56.7367ZM15.6403 55.9476H15.7041L15.753 55.9753H15.6892L15.6403 55.9476ZM15.9444 55.635L15.8955 55.6095L15.9721 55.5861L15.9444 55.635ZM16.5314 57.5491L16.4549 57.5704L16.4825 57.5215L16.5591 57.5002L16.5314 57.5491ZM16.5314 55.9732H16.4698L16.4336 55.92L16.4889 55.82H16.5527L16.5867 55.8732L16.5314 55.9732ZM17.3992 57.8383L17.1865 57.983L17.2949 57.7852L17.4779 57.6916L17.3992 57.8383ZM17.8564 57.2003L17.8692 57.1727L17.9181 57.2024L17.8564 57.2003ZM17.984 57.1408V57.0791L18.0244 57.0663L17.984 57.1408ZM18.3158 57.0663L18.2244 57.1131L18.2945 56.9898H18.3562L18.3158 57.0663ZM18.4179 56.7686H18.3541L18.4221 56.6474L18.4987 56.6261L18.4179 56.7686ZM18.5476 57.581L18.5221 57.5682L18.5625 57.4938L18.5476 57.581ZM18.5093 56.3709L18.588 56.3453L18.5327 56.4453L18.5093 56.3709ZM18.6008 56.9026L18.5646 56.8494L18.6136 56.877L18.6008 56.9026ZM18.7497 56.6899L18.8028 56.5921L18.8773 56.6325L18.7497 56.6899ZM19.2686 58.4955H19.1878L19.2282 58.4572H19.309L19.2686 58.4955ZM19.2324 57.2195L19.2835 57.1854L19.2558 57.2343L19.2324 57.2195ZM19.3452 58.5827L19.3877 58.5423L19.4047 58.6423L19.3452 58.5827ZM19.5855 57.5193L19.5111 57.4789L19.5366 57.4279L19.6259 57.4449L19.5855 57.5193ZM19.8854 58.5827L19.8428 58.7422L19.7429 58.7592L19.7641 58.7018L19.7237 58.6614L19.6854 58.5806H19.7726L19.8939 58.4615L19.9513 58.521L19.8854 58.5827ZM19.6727 58.0425L19.694 58.0212L19.7131 58.0808L19.6727 58.0425ZM19.8556 57.3853V57.3237L19.879 57.3364L19.8556 57.3853ZM20.0045 58.5848V58.5062L20.0427 58.5466L20.0619 58.6444L20.0045 58.5848ZM20.047 58.4253L19.9492 58.3254L19.8917 58.1446L20.1044 58.3679L20.047 58.4253ZM20.2299 58.1701L20.1704 58.1893L20.2129 58.0702L20.2512 58.1106L20.2299 58.1701ZM20.3001 57.5129V57.5916L20.2171 57.6703L20.0215 57.4683L20.164 57.3322L19.9641 57.2875L20.1257 57.2514L20.3022 57.3534L20.3001 57.5129ZM20.2214 57.0748L20.249 57.0238L20.298 57.0514L20.2214 57.0748ZM20.4192 57.5534L20.3809 57.5129L20.4192 57.4747V57.5534ZM20.4426 59.9672L20.483 59.929L20.5 60.0289L20.4426 59.9672ZM20.5383 57.5151L20.5 57.4747L20.5404 57.4364L20.5383 57.5151ZM20.6467 58.3934L20.7042 58.4551L20.685 58.4764L20.6467 58.3934ZM20.7829 59.9119L20.7446 59.8715L20.785 59.8333L20.7829 59.9119ZM20.7106 59.393L20.6957 59.1336L20.8297 59.3951L20.7106 59.393ZM20.8275 58.2977L20.7871 58.2573L20.7701 58.0787L20.8105 58.0383L20.8488 58.0787L20.8275 58.2977ZM20.8275 57.4789L20.8403 57.4534L20.8764 57.5044L20.8275 57.4789ZM20.9041 57.9043V57.7044L20.9254 57.6852L21.0019 57.8469L20.9402 58.0255L20.9041 57.9043ZM21.0147 59.8418L20.9955 59.8205L21.0551 59.8014L21.0147 59.8418ZM21.6527 60.7478L21.4719 60.7244L21.4953 60.5861L21.708 60.6882L21.6527 60.7478ZM21.4166 59.0889V59.0102L21.5549 59.0719L21.6527 59.1718L21.5145 59.191L21.4166 59.0889ZM21.6591 60.3884L21.64 60.2884H21.7186L21.7569 60.4096L21.6591 60.3884ZM21.7846 58.6167L21.7484 58.3764H21.7888L21.8037 58.5891L21.7846 58.6167ZM21.9058 58.5381V58.4976L21.9845 58.5785L21.9058 58.5381ZM21.9973 58.9974L22.0802 58.9209L22.178 59.0208L22.1376 59.0612L21.9973 58.9974ZM22.127 58.3211V58.202L22.1674 58.2424V58.3637L22.127 58.3211ZM22.0568 60.3947V60.1969L22.1568 60.2969L22.0568 60.3947ZM22.1483 60.9349L22.1695 60.8754L22.2269 60.9349H22.1483ZM22.2312 59.3611L22.2716 59.3207L22.3141 59.242L22.3333 59.3016L22.2503 59.3824L22.2312 59.3611ZM22.3248 61.59V61.5496L22.3652 61.5113L22.3248 61.59ZM22.5056 60.2352L22.4651 60.1948L22.5056 60.1565V60.2352ZM22.7182 60.8988L22.6608 60.8371L22.7204 60.7775L22.7182 60.8988ZM22.7863 60.4394L22.7055 60.3586L22.8288 60.2416L22.8458 60.3416L22.7863 60.4394ZM22.7374 59.7014L22.597 59.7184L22.614 59.8588L22.6736 59.9991L22.631 60.0396L22.5332 60.0162L22.5587 59.6376L22.4375 59.5972L22.3992 59.5568L22.4417 59.5185L22.48 59.5589H22.6395L22.6778 59.5993L22.7374 59.6206L22.9352 59.8333V59.9524L22.8543 60.0311L22.7374 59.7014ZM22.6863 59.1229H22.7501V59.2037L22.6863 59.1229ZM22.9203 60.7414V60.701L22.9394 60.7201L22.9203 60.7414ZM23.2542 61.0455L23.1542 61.0647L23.0777 60.9838V60.903L23.0011 60.7414L23.1415 60.684L23.1585 60.8243L23.2754 60.9456L23.2542 61.0455ZM23.3669 61.5645L23.2882 61.4836L23.3903 61.3858L23.3669 61.5645ZM23.4009 60.6691L23.3201 60.7478L23.2606 60.6861L23.3414 60.6074L23.4009 60.5904V60.6691ZM23.4116 59.9098L23.4541 59.7524L23.5115 59.8928L23.4116 59.9098ZM23.688 61.4496L23.6689 61.4305V61.271L23.5115 61.1093L23.4924 61.0094L23.5328 60.9711L23.5519 60.9902V61.0689L23.7284 61.2518L23.688 61.4496ZM23.9007 61.7133L23.9624 61.5751L24.0411 61.6559L23.9411 61.7537L23.9007 61.7133ZM24.0262 60.9519V61.0072H23.9964V60.9519H24.0262ZM23.9964 59.1187V59.0634H24.0262L23.9964 59.1187ZM24.0602 61.926H23.9794L24.0007 61.8282L24.1006 61.8877L24.0602 61.926ZM24.2729 60.8094L24.2155 60.8669V60.7818L24.2729 60.7265V60.8094ZM24.443 61.2348V61.0944H24.5536L24.443 61.2348ZM24.7812 61.2348H24.7238V61.1795L24.7812 61.0944L24.8365 61.1221L24.7812 61.2348ZM24.8365 61.0094L24.7812 60.9541H24.8365V61.0094ZM24.8939 60.869H24.8365L24.7536 60.7839L24.6387 61.0391L24.4707 60.9541L24.3856 61.0944H24.3282V61.0094L24.3027 60.9541L24.3856 60.8966L24.4983 60.8116L24.5536 60.8966V60.7839L24.6387 60.5861H24.4983L24.3856 60.8116L24.3282 60.7839V60.6436L24.4983 60.5032H24.7238V60.5861L24.8939 60.7839V60.869ZM24.7238 60.2756L24.7812 60.1927L24.8365 60.248L24.9216 60.2756L24.8939 60.3331L24.9492 60.4734L24.8365 60.5861V60.5585H24.7812L24.7238 60.3331L24.526 60.4458V60.3628L24.6111 60.2756H24.7238ZM24.6685 60.0778V60.0502L24.7238 59.9672V60.0225L24.6685 60.0778ZM24.8939 60.1374V60.0778H25.0066L24.9492 60.1374H24.8939ZM25.0619 61.0094H24.9492V60.7286L25.0619 60.8116V61.0094ZM25.0619 60.2756V60.1927L25.1194 60.248L25.0619 60.2756ZM25.683 60.5861L25.6255 60.8116H25.5426V60.7839H25.5979V60.6436L25.5426 60.5585L25.6553 60.4734L25.7383 60.5032L25.683 60.5861ZM25.5979 60.1374V60.0502H25.683L25.6553 60.1374H25.5979ZM25.683 59.459V59.4313L25.7383 59.3739L25.683 59.459ZM25.7659 60.3628L25.7383 60.0778H25.7659L25.936 60.248L25.7659 60.3628ZM26.2742 60.869V60.8116H26.3316L26.2742 60.869ZM26.3869 60.1374L26.4443 60.0502H26.5018L26.3869 60.1374ZM26.5847 59.8545H26.5783L26.606 59.6844H26.6634L26.5847 59.8545ZM26.7825 61.0094V60.8966L26.8101 60.869L26.8676 60.8966L26.7825 61.0094ZM27.3184 61.2348L27.261 61.1795H27.3184V61.2348ZM27.3184 59.8545H27.2164L27.2717 59.7418H27.3291L27.3184 59.8545ZM27.4312 61.0094L27.4014 60.9541H27.4312L27.4886 61.0094H27.4312ZM27.3737 60.0502L27.4014 59.9672L27.4312 60.0225L27.3737 60.0502ZM27.6268 61.1136V61.0859L27.6566 61.0583L27.6268 61.1136ZM27.8267 60.8881V60.8605H27.882L27.8267 60.8881ZM27.9948 60.0693L27.9395 60.0417H27.9948V60.0693ZM28.1075 61.2837H28.0671V61.1136H28.1798L28.1075 61.2837ZM28.1075 59.6482V59.5632H28.1649L28.1075 59.6482ZM28.3053 61.2837L28.2479 61.2263H28.3053V61.2837ZM28.4456 61.2837V61.2263L28.4754 61.171L28.4456 61.2837ZM28.4754 60.8584L28.4456 60.886V60.8009H28.4924L28.4754 60.8584ZM29.0667 60.8584L28.9263 60.9434L29.039 60.7733H29.0667V60.8584ZM29.039 60.3522V60.3224L29.0667 60.3522H29.039ZM28.9263 60.1268V60.0672L28.8689 60.0396L28.7838 60.0672L28.8689 60.0119H29.0114L29.0667 60.2097L28.9263 60.1268ZM29.0667 59.9566L29.039 59.8992L29.0667 59.8439H29.0943L29.1517 59.8992L29.0667 59.9566ZM29.3219 60.1821V60.1268L29.3772 60.0672V59.8992H29.5558V60.1268L29.5005 60.1821L29.5558 60.2374L29.3878 60.3522V60.265L29.4452 60.2374V60.1821H29.3219ZM29.5452 61.0838L29.4899 61.1115V60.9519L29.66 60.8094L29.6026 60.8945L29.5452 61.0838ZM29.8833 60.9434V61.0838H29.743V61.0562L29.66 60.9987L29.6877 60.9434L29.743 60.8584H29.9131L29.8833 60.9434ZM29.7706 60.1821H29.6877L29.66 59.8439H29.7706L29.743 59.8992H29.8833L29.9131 60.0119L29.7706 60.1821ZM29.9705 61.1689V61.0562H30.0535L29.9705 61.1689ZM30.1386 60.9987L30.1109 60.9434L30.1386 60.8584V60.9987ZM30.1109 60.265L29.9982 60.2374L30.2236 60.097V60.1821L30.1939 60.2374L30.1386 60.3224L30.1109 60.265ZM30.0535 60.0672V60.0396H30.1109V60.0672H30.0535ZM30.247 62.0579L30.1939 62.0153V61.96H30.2513L30.247 62.0579ZM30.532 60.3224H30.4491L30.532 60.0672V60.3224ZM30.6979 62.1132H30.6702V62.0579H30.6979V62.1132ZM30.9786 62.1132V62.0579L31.0084 62.0004L31.0637 62.0579L31.0084 62.1132H30.9786ZM31.1211 62.1685H31.0637L31.1764 61.9707L31.2338 62.0579L31.1211 62.1685ZM31.3742 60.45H31.4019V60.4777L31.3466 60.5053L31.3742 60.45ZM31.3466 60.2522H31.3742L31.4019 60.2799H31.3742L31.3466 60.2522ZM31.5146 60.6776V60.8733L31.4019 60.903V60.6776H31.5146ZM31.7421 61.0157L31.5997 61.071L31.4019 61.1561H31.3742L31.5146 61.0157L31.7421 60.903V61.0157ZM31.6273 60.1969V60.1693L31.6847 60.1969H31.6273ZM31.9655 61.4943L31.7974 61.5793V61.4943L31.8527 61.4666L31.9102 61.3263H31.9655V61.4943ZM32.193 61.6921L32.0803 61.7771H32.0229L32.193 61.607V61.6921ZM34.1071 60.7223V60.6648H34.1348L34.1071 60.7223ZM34.1071 60.5521V60.467H34.1348L34.1071 60.5521ZM34.6984 60.6648L34.5856 60.7775L34.558 60.8903H34.5282V60.7775L34.5856 60.6095H34.6984V60.6648ZM34.558 60.5521V60.4394L34.5856 60.467L34.558 60.5521ZM34.7558 60.4394H34.6984L34.6431 60.3267L34.6984 60.2693L34.7558 60.3267V60.4394ZM35.0939 60.2416H35.0365L35.0939 60.1863V60.2416ZM35.4874 61.003V60.7223L35.5725 60.7775L35.4874 61.003ZM35.5725 60.4394L35.4874 60.3267L35.5725 60.2693L35.6299 60.3841L35.5725 60.4394ZM36.1935 61.0604V60.7818H36.2488L36.1935 61.0604ZM36.4189 60.4947H36.3062L36.2488 60.3841L36.1361 60.4947V60.3267H36.4189V60.4947ZM36.4466 61.0604L36.5316 60.8903L36.5869 61.003L36.5316 61.0604H36.4466ZM36.672 61.4539H36.5869V61.3773H36.672V61.4539ZM37.1229 61.1434H37.0378V61.003L37.0676 60.9456V61.0604L37.1229 61.0881V61.1434ZM37.2356 61.2859L37.208 61.2284H37.2356V61.2859ZM37.1527 60.467V60.7775H37.0378V60.2416H37.1527L37.1229 60.2693V60.3543L37.2356 60.2693L37.1527 60.467ZM37.6588 60.4947L37.6312 60.6095V60.7775L37.6588 60.8328L37.6035 60.92L37.5185 60.7775L37.461 60.7223L37.5185 60.6648L37.5738 60.4947L37.6588 60.4394V60.4947ZM37.6312 60.2693V60.1565H37.7439L37.8013 60.2416L37.6312 60.2693ZM37.8566 60.467H37.8013L37.8566 60.4394V60.467ZM38.0246 61.4539H37.9693V61.3986L38.0246 61.3688V61.4539ZM37.9119 60.7223V60.6648H37.9693L37.9119 60.7223ZM38.1395 60.8903H38.0821V60.7775L38.0544 60.7223L38.1395 60.6648L38.1948 60.8328L38.1395 60.8903ZM38.1948 60.3267V60.1863H38.2501L38.2799 60.3267H38.1948ZM38.3649 60.6095L38.3352 60.5521L38.3649 60.4947V60.6095ZM38.2799 59.5653H38.1395L38.3352 59.3973H38.3649L38.2799 59.5653ZM38.4776 59.4249V59.3973H38.5904L38.4776 59.4249ZM38.6457 60.7223V60.6648L38.6754 60.7223H38.6457ZM38.8158 59.9587L38.7031 60.0438L38.786 59.846L38.8158 59.8758V59.9587ZM39.0136 60.5521L38.9285 60.4117L39.0965 60.467L39.0136 60.5521ZM39.1263 60.0438V59.8886H39.2943L39.1263 60.0438ZM39.3518 60.6648V60.6095L39.4071 60.6648H39.3518ZM39.4071 60.2693H39.5198V60.4947H39.4645V60.3841L39.4071 60.2693ZM39.5772 61.2284H39.5198V61.003L39.6325 60.8052L39.775 60.8903L39.6601 60.92L39.5772 61.2284ZM39.775 61.0306L39.8579 60.9456L40.0004 60.7499V60.8328L39.8579 61.0881L39.775 61.0306ZM39.8579 61.3986H39.8026L39.9154 61.3135L39.943 61.3688L39.8579 61.3986ZM40.0281 61.003L40.0004 61.0881V60.92L40.1408 60.6925L40.2259 60.7775V60.8903H40.1408L40.0281 61.003ZM40.0557 60.1863H40.2259V60.467L40.1684 60.4947L40.1408 60.467V60.3267L40.0557 60.1863ZM40.6193 61.2859H40.564L40.5066 61.3688H40.4024L40.3471 61.4539L40.3173 61.3986L40.3471 61.3135L40.5151 61.2561L40.43 61.1731L40.3173 61.2284L40.2344 61.1434L40.5449 61.0881L40.6278 61.1434L40.6193 61.2859ZM40.3088 59.7333V59.7057L40.3386 59.6482V59.7057L40.3088 59.7333ZM40.3939 60.5521L40.4513 60.4947V60.5521H40.3939ZM40.9596 61.3688L40.7895 61.3135L40.9022 61.2859L40.9596 61.3135V61.3688ZM40.9596 61.0881L40.9022 61.0604V61.003L40.9596 61.0604V61.0881ZM40.8447 60.9753L40.564 60.8903V60.7223L40.6767 60.6648H40.7895V60.8328H40.9022L40.9596 60.8903L40.8447 60.9753ZM40.7618 60.4394V60.3841H40.7895V60.467L40.7618 60.4394ZM41.1872 60.3841L41.0744 60.4947L40.8767 60.3841L41.0744 60.2693V59.7907H41.1595V60.2693L41.1297 60.3267V60.3841H41.1872ZM41.017 60.7223L41.1872 60.5521L41.2425 60.467V60.8328H41.017V60.7223ZM41.3828 61.003L41.2999 61.0881H41.2425L41.3828 60.8903V61.003ZM41.5827 61.0881L41.5253 61.003H41.4658V60.9519H41.6359L41.5827 61.0881ZM41.6933 59.9311L41.6657 59.8758V59.846H41.6933V59.9311ZM41.7508 61.0306L41.8061 60.92L41.9485 61.0604L41.7784 61.1434L41.7508 61.0306ZM41.7508 60.6648L41.9188 60.5521V60.7223L41.8911 60.7775V60.7223L41.7508 60.6648ZM41.9762 61.3986H41.8911L41.9762 61.3135L42.0613 61.3688L41.9762 61.3986ZM42.2867 60.6648L42.2293 60.6095V60.4394L42.2867 60.4947V60.6648ZM42.2867 59.846H42.2016L42.2867 59.7057V59.846ZM42.7227 60.0013L42.6674 59.9715V59.6908H42.7227L42.7801 59.8035L42.7227 60.0013ZM43.9988 60.5649L43.9137 60.6202V60.4522L43.9988 60.3947H44.0541L43.9988 60.5649ZM43.9413 58.9017V58.8443L43.9988 58.7592V58.8443L43.9413 58.9017ZM44.2242 60.1969H44.0541L44.2242 60.0013V60.1969ZM44.3369 61.1008V61.0455H44.3943L44.3369 61.1008ZM44.5347 59.4653L44.4496 59.3803L44.5071 59.1825L44.5347 59.3526L44.59 59.4653H44.5347ZM44.9856 59.8035L44.9579 59.8311V59.7482H44.9856V59.8035ZM45.3514 60.282H45.2663L45.3237 60.2267H45.379L45.3514 60.282ZM50.2919 55.8477H50.2642L50.2919 55.7626V55.8477ZM51.0831 53.9591L50.9682 54.0718L50.9129 54.1569L50.8853 54.0718L50.9406 53.874H51.0831V53.9591ZM51.3064 55.82L51.2511 55.7073H51.3064V55.82ZM51.3064 55.2288H51.2489V55.1714L51.3042 55.1139L51.3064 55.2288ZM51.3064 53.8464L51.3638 53.7315H51.5892V53.9038L51.3638 54.0165L51.3064 53.8464ZM51.7019 55.3692V55.5946H51.5063L51.6445 55.3139V55.1139H51.7019L51.7296 55.2288L51.7019 55.3692ZM51.8147 54.4674L51.6445 54.6631V54.5525L51.7296 54.3823H51.8147V54.4674ZM52.0125 54.1845H51.955V54.1569H52.0125V54.1845ZM51.955 53.7315L52.0401 53.6209V53.7315L52.1252 53.706V53.7315L52.0975 53.789V54.0718H52.0125V53.8464L51.955 53.7315ZM52.1805 54.4674H52.1252L52.0678 54.4802L52.0401 54.4674L52.0975 54.327L52.1805 54.3823V54.4674ZM52.4059 54.0718H52.3506L52.3081 54.0995L52.2379 54.0718L52.3506 54.0165L52.4059 53.874H52.4633L52.4059 54.0718ZM52.3506 53.5635V53.6209L52.2953 53.706L52.2379 53.6507V53.6209H52.2953L52.3506 53.5635ZM52.323 53.4508V53.3955H52.3506V53.4508H52.323ZM52.5208 53.7315L52.4633 53.706L52.5208 53.6507H52.5484L52.5208 53.7315ZM53.0269 53.4232L52.9419 53.3402L53.0269 53.1977L52.9419 53.1126H52.6888L52.6335 52.8872L52.6888 52.7745L52.7738 52.9999H52.9142L52.9419 53.0276L53.0269 52.9999L53.0844 53.0574L53.0269 53.4232ZM52.6335 52.1258L52.6888 51.9578L52.7738 52.2385L52.7462 52.296V52.4087L52.6888 52.4363L52.6335 52.4087L52.6888 52.2109L52.6335 52.1258ZM53.0269 52.5193H53.1418L53.2247 52.632L53.1673 52.8021H53.0269V52.7192L53.0844 52.6043L53.0269 52.5193ZM53.1418 51.9578L53.0269 52.0131V51.9578H53.1418ZM53.0269 50.8285V50.6307L53.0844 50.7434V50.8285H53.0269ZM53.1418 52.0131V52.0684L53.0844 52.1258V52.0684L53.1418 52.0131ZM53.3098 50.9986L53.3651 51.0539V51.139L53.1673 51.2241L53.2524 51.139V51.0539L53.3098 50.9986ZM53.2524 49.9544V49.9246H53.3098L53.3949 49.8991V49.9544H53.2524ZM53.3098 52.0131L53.2247 52.0684L53.2524 51.9855L53.3098 52.0131ZM53.2524 51.307L53.2247 51.3644V51.307H53.2524ZM53.2524 51.7877L53.2247 51.843H53.1418V51.7324L53.2524 51.7877ZM53.4502 53.6209L53.3651 53.706L53.2524 53.8464L53.1418 53.9591V53.874L53.1673 53.789V53.706L53.2524 53.6507L53.4502 53.4508V53.6209ZM53.7032 52.9999V52.9446L53.7607 52.9999H53.7032ZM53.7607 51.139L53.6756 51.0816V50.9136H53.7607V51.139ZM53.7032 49.8417V49.7013L53.7883 49.8417H53.7032ZM53.816 52.6065L53.901 52.4385L53.9585 52.6065H53.816ZM54.1839 52.5788L54.1286 52.4938H54.1839V52.5788ZM54.1839 52.0152H54.0712V51.9025L54.1839 51.9876V52.0152ZM54.0138 50.8306V50.7732H54.0712L54.0138 50.8306ZM54.2413 50.4648V50.2947L54.3519 50.4648H54.2413ZM54.4668 51.6196L54.5221 51.4516L54.5795 51.5069L54.5221 51.6196H54.4668ZM54.5795 51.7345V51.6771L54.6071 51.7345H54.5795ZM54.7475 51.2262L54.6624 51.2815L54.6922 51.1688H54.7475V51.2262ZM54.8049 50.0714H54.7475L54.8049 50.0139V50.0714ZM55.1431 51.9855V52.0195L55.0303 51.9918H54.9729V51.8493L55.058 51.794H55.1431L55.058 51.9068L55.1431 51.9855ZM55.1984 51.6175H55.1431V51.5622H55.2281L55.1984 51.6175ZM55.3962 51.0539H55.3409L55.3962 50.9986V51.0539ZM55.5089 51.2794L55.4515 51.307V51.2241H55.5025L55.5089 51.2794ZM55.7343 49.7289L55.6492 49.9246H55.6216V49.7842L55.7917 49.6162L55.847 49.6439L55.7343 49.7289ZM56.3915 48.9123L56.3341 48.8548V48.6847L56.3915 48.8548V48.9123ZM56.4489 48.9952L56.5893 48.8548L56.6722 48.9399L56.5893 49.0803V49.1653H56.5042L56.4489 48.9952ZM56.3915 47.4724V47.3874L56.4489 47.4724H56.3915ZM56.6169 49.3865L56.5893 49.3589L56.6169 49.2738H56.702L56.6169 49.3865ZM56.7871 48.7655L56.6722 48.8229L56.5893 48.7379L56.6169 48.6804H56.7871V48.7655ZM56.8977 49.3015L56.87 49.2738H56.8977V49.3015ZM57.0402 49.1611L57.0104 49.2164L56.9274 49.1611L57.0104 49.076H57.0402V49.1611ZM57.0955 48.8506H57.0104V48.7655H57.0955V48.8506ZM57.0104 48.3423V48.5699H56.7977V48.5124L56.9083 48.3423L56.9657 48.1743L57.0508 48.1168L57.1912 48.1445L57.0104 48.3423ZM57.7739 48.8229L57.659 48.7379H57.7739V48.8229ZM57.5187 48.7655L57.6314 48.9633L57.491 48.908H57.3209V48.5741L57.5187 48.4593L57.2932 48.404L57.3783 48.2359L57.6314 48.3465V48.5443L57.7739 48.5741L57.5187 48.7655ZM57.491 46.341L57.5485 46.2836H57.6038L57.491 46.341ZM57.8292 49.3589V49.3015L57.8845 49.3589H57.8292ZM57.9419 48.0041V47.9488H57.9993L57.9419 48.0041ZM58.3375 44.2823H58.2524L58.2248 44.227L58.3375 43.9994V44.2823ZM58.4502 48.3997L58.4779 48.3423H58.5332L58.4502 48.3997ZM58.5608 48.0041L58.5332 48.0616V48.0041L58.5608 47.9191V48.0041ZM58.6182 42.0832H58.5608L58.6182 42.0258H58.6757L58.6182 42.0832ZM58.7586 47.3831H58.7033V47.3406L58.7586 47.3129V47.3831ZM58.7586 45.184H58.7033L58.7586 45.1287V45.184ZM58.8437 44.2823H58.7884L58.8437 44.227H58.8713L58.8437 44.2823ZM58.9287 44.4226V44.3099L58.9862 44.3673L58.9287 44.4226ZM58.8713 44.1419V44.0845H58.9287V44.1504L58.8713 44.1419ZM59.0989 43.4082H59.0712V43.3805H59.0989V43.4082ZM59.437 43.4082H59.3796L59.437 43.3805H59.4923L59.437 43.4082ZM59.5732 37.5106C59.5072 39.6672 58.6608 41.1665 57.8887 43.0168L57.9696 43.0977L57.8845 43.2401L57.8292 43.1827V43.1593C57.7526 43.3465 57.6761 43.5358 57.6016 43.7314L57.8292 43.3529H57.8845V43.5209L57.9419 43.5783L57.8292 43.606V43.3529C57.7718 43.5273 57.7101 43.7017 57.6442 43.8739L57.8292 43.691H57.9419V43.7463H57.8292L57.7165 43.9143L57.659 43.9718L57.6314 44.0292V43.9994L57.6038 43.9718C56.7318 46.1964 55.1537 48.1232 53.3502 49.7481L53.3055 49.8374L53.28 49.8098C53.0532 50.0139 52.8235 50.2131 52.5909 50.4074C51.6786 51.1666 51.2234 51.8493 50.6939 52.9106C50.0112 54.2016 48.9478 54.276 47.8865 55.1118C46.0868 56.5115 44.0594 57.5907 41.8932 58.302C40.598 58.6784 39.3411 59.0761 38.0842 59.4334L38.1055 59.4568L38.0204 59.5695V59.4632L37.6503 59.5674V59.7503H37.6376V59.5738C36.8975 59.7865 36.1488 59.9609 35.3789 60.1182L35.4066 60.1735L35.3789 60.2033V60.1012C35.2258 60.1331 35.0748 60.1672 34.9217 60.1948C33.4074 60.4755 31.7315 60.1757 30.0939 59.8758L30.0684 59.9013H30.0131V59.8609L29.5686 59.7822L29.5048 59.846V59.7886H29.4495L29.4644 59.7631C29.1539 59.7078 28.8497 59.6567 28.5456 59.61V59.6206H28.4052L28.4371 59.5929C28.4237 59.595 28.4101 59.595 28.3967 59.5929C24.073 58.9124 20.4298 57.1663 16.6378 54.9672C14.7302 53.9076 12.9876 52.5749 11.4655 51.0114C11.2407 50.7955 11.0318 50.5638 10.8402 50.3181C10.719 50.1756 10.602 50.0309 10.4871 49.8821C10.417 49.7821 10.3489 49.6694 10.2745 49.5779C9.92567 49.0994 9.54923 48.5507 9.16003 47.968H9.14514L9.03242 48.0786H8.92608L8.81336 48.136H8.75594L8.98138 47.9105L9.10048 47.8701L8.79422 47.4022H8.75594L8.73042 47.3065C7.43734 45.3052 6.10385 43.087 5.47645 42.0236C5.33429 41.8208 5.20774 41.6076 5.09788 41.3856C4.89639 40.9821 4.73539 40.5597 4.61723 40.1244L4.56619 40.1436L4.59384 40.0436C4.40858 39.2658 4.32353 38.4674 4.34075 37.668C4.34075 37.5021 4.34075 37.3128 4.34075 37.1087V37.1257L4.31098 37.098V37.4362H4.19826V37.3447H4.11319V37.1767L4.25568 36.8938L4.35139 36.9725C4.37691 36.175 4.42795 35.1499 4.43008 34.1141L4.34075 34.1865L4.39605 33.9887L4.43008 34.0227C4.43008 32.2936 4.28546 30.5603 3.65593 29.8478L3.96006 29.9223V29.6245C4.03662 27.955 4.49175 25.4497 5.09788 24.0098C5.93371 21.9596 6.38884 19.9881 7.37566 18.0166C7.82867 17.0298 8.66449 16.2705 9.34718 15.3602C9.87888 14.6775 10.2574 13.7651 10.8636 13.0846C11.1428 12.7658 11.4464 12.4693 11.7717 12.1977V12.1318L11.8802 12.1063C12.078 11.9425 12.2843 11.7809 12.4906 11.6235H12.4778V11.5384L12.5331 11.4257V11.2003L12.5905 11.0875V10.8621L12.7309 11.0025L12.816 10.9748L12.8713 10.8621H12.984L13.0414 10.7494H13.1796L13.2924 10.9472L13.152 11.0578L12.9818 10.9748L12.8989 11.0322V11.2003L12.7564 11.3683L12.7288 11.4257L12.6713 11.481C13.7836 10.6601 14.9619 9.88165 15.7318 8.84591L15.6552 8.69491C17.6267 6.79783 21.3443 5.88757 23.9241 5.20487L24.0007 5.28143C26.5871 4.36583 29.3133 3.9081 32.0569 3.9288H32.1399V3.93944C33.4668 3.96263 34.7848 4.16144 36.0595 4.53068C37.88 5.06238 39.5495 5.66851 41.4466 6.19807C42.1187 6.37885 42.8418 6.53198 43.5415 6.75316L43.5564 6.70212L43.6372 6.72977L43.5479 6.75529C44.0307 6.89826 44.4964 7.09367 44.9367 7.33803C46.0745 7.94416 46.9848 8.93098 48.1268 9.61368C49.673 10.5814 51.6573 11.4937 53.1949 12.6762L53.2736 12.6252L53.2205 12.6954C53.3906 12.8272 53.5544 12.9612 53.7118 13.0973L53.7649 13.1165V13.1399C53.8372 13.2037 53.9095 13.2654 53.9776 13.3313C55.4812 14.7605 56.9083 18.1973 57.155 20.2539C58.5714 23.8227 59.8922 26.9001 59.7433 30.9325C59.7433 31.0707 59.7433 31.209 59.7327 31.3578L59.6795 31.3876V33.3698C59.6795 33.4527 59.6795 33.5378 59.6795 33.6229V35.0053L59.8475 34.8351V34.9776L59.7071 35.118H59.6795V35.3711L59.7348 35.286H59.7922V35.3711L59.6433 35.5199C59.6192 36.1863 59.5958 36.8513 59.5732 37.5149V37.5106ZM59.7178 35.8219L59.8879 35.6539L59.9687 35.4306L60.0814 35.3158L59.9687 35.7709L59.7709 35.8836L59.7178 35.8219ZM60.0006 36.4153H59.8879V35.99H60.0006V36.4153ZM60.1133 36.528L60.0559 36.443L60.141 36.3579L60.2537 36.1325H60.3388L60.1133 36.528ZM60.2814 18.7099H60.3941V18.7397H60.3367L60.2814 18.7099ZM60.4239 35.9368H60.4515V35.9942H60.3664L60.4239 35.9368ZM60.5068 36.6429H60.4239V36.5855H60.5068V36.6429ZM60.762 36.4451V36.5578L60.7046 36.6429L60.6493 36.5855V36.4174L60.5068 36.1069L60.6493 35.9368V35.7688L60.7046 35.7114V35.5157L60.762 35.4306L60.8471 35.739L60.7046 35.9666V36.36L60.762 36.4451ZM61.1002 35.3158L61.0427 35.3732L60.9875 35.3158L61.1002 35.1201V35.3158ZM60.9024 32.4531H61.0151L61.0427 32.5084H61.0151L60.9024 32.4531ZM61.1852 32.2L61.1278 32.2851H61.0725V32.2L61.0151 32.3404L60.93 32.2851L61.0427 32.1724H61.2448L61.1852 32.2ZM61.0427 31.4387H61.0151V31.3536L60.9024 31.2983L61.0151 31.2409L61.0427 31.1834L61.0151 31.0729L61.1278 31.0154V31.1771H61.1852L61.2405 31.0665L61.298 31.0367L61.4107 31.1218L61.2682 31.1771L61.2405 31.2345L61.0427 31.4387ZM61.3256 35.9496H61.2682V35.7241L61.3256 35.6114V35.9496ZM61.466 31.5216V31.6641L61.3533 31.579L61.466 31.5216ZM61.6361 36.5132H61.5787L61.6361 36.4302V36.5132ZM61.6063 36.2048L61.6638 36.007L61.7488 36.0921L61.6063 36.2048ZM61.7488 32.6233H61.6361L61.7488 32.5084V32.6233ZM61.5787 32.3978H61.6935L61.5234 32.4808L61.466 32.5659L61.383 32.5084L61.5234 32.3404L61.6638 32.1426L61.7488 32.2L61.5787 32.3978ZM61.7488 32.0576H61.6702L61.7276 31.8619L61.6425 31.8045V31.8619L61.6702 31.8895L61.6425 31.9448L61.4447 31.8619L61.4724 31.747H61.5851L61.6702 31.579L61.6999 31.6641V31.747L61.7552 31.8045L61.7488 32.0576ZM61.8339 24.3374V24.3948L61.7765 24.3374H61.8339ZM61.8892 36.5706V36.6556L61.8041 36.5706L61.8892 36.4579H61.9743L61.8892 36.5706ZM62.3699 36.007H62.1444L61.9466 35.8368L62.1721 35.554V35.6114L62.1444 35.7518L62.1721 35.8368H62.3699V36.007ZM62.4252 32.7339V32.6658H62.4826L62.4252 32.7339ZM62.4826 31.8832H62.3975V31.8555H62.4826V31.8832ZM62.7633 34.9287L62.708 35.1541H62.5953L62.5655 35.0414L62.7633 34.9287ZM62.5953 35.8879L62.8207 35.6624L62.9909 35.605L63.0738 35.5221H63.1015V35.7177H62.9909L62.876 35.8305H62.7633L62.6506 35.8879H62.5953Z" fill="white"/>
<path d="M58.4483 37.4532C58.3845 39.5034 57.5806 40.9262 56.8468 42.685L56.9234 42.7637L56.8426 42.8977L56.7894 42.8445V42.8211C56.7171 42.9998 56.6448 43.1806 56.5767 43.3656L56.7894 43.0062H56.8426V43.1657L56.8979 43.2189L56.7894 43.2465V43.0062C56.7362 43.1721 56.6767 43.338 56.615 43.5017L56.7894 43.3273H56.8979V43.3805H56.7894L56.683 43.54L56.6299 43.5953L56.6022 43.6485V43.6229L56.5767 43.5953C55.7451 45.7093 54.2373 47.5405 52.5358 49.0824L52.4912 49.1696L52.4657 49.1441C52.253 49.3376 52.0403 49.5269 51.8127 49.7119C51.4305 50.0236 51.0877 50.3807 50.7919 50.7753C49.7094 51.2708 48.3355 51.928 47.7676 52.3215C46.9169 52.9148 46.9169 53.5061 45.2474 54.2164C42.4996 55.3883 39.0308 52.2215 39.0223 52.2151C36.8636 48.9824 34.5369 44.4737 34.5369 44.4737L36.5914 45.2116L36.8976 44.9564L34.5178 44.1057L34.4965 43.6804L34.9219 43.6059L36.6786 44.0845L37.2315 44.4651L37.5463 44.3184L38.5012 44.5779L40.8407 44.8161L40.9896 44.5226L38.7245 44.2908L37.0104 43.825L36.1065 43.1976L34.4582 42.9977L34.4327 42.4894L36.5595 43.1402L40.4813 43.104L41.6935 43.7208L42.1338 44.8267L42.7101 44.7501L42.4549 44.1121L43.5034 44.648L43.9288 44.4354L41.9275 43.4145L44.2031 43.5549L44.3073 43.2571L41.2469 43.07L40.7429 42.8126L36.7466 42.8509L36.0767 42.6382L38.4991 42.534L41.5383 42.6149L41.6021 42.315L38.5055 42.2342L35.2154 42.3745L34.4051 42.1278V42.0427L35.4302 42.3256L37.5165 41.8131L37.3251 41.5387L35.4684 41.9938L34.388 41.6961L34.3774 41.5111L34.5071 41.5493L38.2056 41.124L40.4302 41.56L40.5982 41.3622L42.9802 42.449L43.395 42.2235L40.7195 40.9475L38.7841 40.5923L40.4345 40.6263L45.0666 41.8535L45.3452 41.7684L47.0062 42.4064L47.372 42.164L45.9109 41.611L47.3997 41.1623L47.1274 40.9071L45.0815 41.5281L43.8692 41.2069L45.996 40.8071L45.8259 40.5264L43.1674 41.024L40.6152 40.3477L34.3221 40.2158V40.1712L40.8194 40.2648L43.3205 40.6284L45.1368 40.4817L45.0794 40.1861L43.3928 40.3222L40.9066 39.9649L34.3136 39.8713L34.2945 39.4927L36.7275 39.2801L39.3583 39.9181L45.526 39.5672L45.5068 39.2588L39.4923 39.6012L38.2162 39.2928L40.1686 39.1078L40.141 39.1269L41.3213 39.4779L44.1755 38.7781L43.9926 38.5059L41.4234 39.144L40.56 38.8887L40.5323 38.7803L37.4995 39.0461L37.5144 39.1142L36.836 38.9504L34.7879 39.1397L35.4897 38.7377L35.2558 38.6101L35.5471 38.5825L35.4897 38.2996L36.7147 38.6995L37.0019 38.4379L35.0112 37.7998H34.9453L34.2051 37.7871L34.1903 37.4574L35.6173 37.6956L36.3532 37.5148L36.1745 37.6233L37.2613 38.0848L41.0895 38.4123L44.2797 37.4532L44.0053 37.198L41.0066 38.0997L37.5463 37.802L36.6956 37.4361L37.172 37.3192V37.3319L38.6054 37.7339L40.6259 36.8236L42.4081 37.0618L42.5251 36.7683L40.511 36.494L38.5395 37.3809L37.7611 37.1682L38.8245 36.9087L38.6693 36.6301L35.6046 37.3766L34.1732 37.132L34.1584 36.8173L35.0091 36.8896L37.7739 36.5514L37.7207 36.3728L38.6693 36.5089L38.7926 36.2175L37.9844 36.1027L38.9287 35.8262L40.3537 36.2515L40.6663 36.1707L41.8445 36.6237L43.6608 35.722L43.3758 35.488L41.8275 36.2579L41.2193 36.0261L42.5145 35.6901L42.3507 35.4136L40.3834 35.924L39.4944 35.6539L41.5744 35.0435L41.3873 34.7734L38.9479 35.488L38.8415 35.4561L38.7756 35.5391L37.9419 35.7836L35.5216 35.4497L34.5071 35.6114L34.6922 35.3987L34.0754 35.2477L34.0648 35.0223L34.9155 35.3221L36.7956 34.867L38.7097 35.1392L38.8309 34.8479L36.7871 34.565L34.9793 34.9904L34.0563 34.6671L34.0393 34.2928L36.8551 33.9653L38.9117 34.4544L39.1861 34.1801L36.9912 33.6611L39.0861 33.4867L40.5047 33.9695L40.8556 33.9014L40.8386 33.9163L42.1891 34.3417L44.4094 34.1609L44.3541 33.8632L42.3294 34.0291L41.5255 33.7781L44.6412 33.1805L44.4775 32.8976L40.6025 33.642L39.9645 33.4293H40.1771L40.2303 33.1294L38.3162 33.0805L37.2124 32.8147H37.2634L37.1869 32.602L37.6697 32.7232L39.0329 32.4148L38.9712 32.5339L43.0398 32.9933L43.1908 32.6998L39.3626 32.2745L39.2328 32.0618L37.7079 32.4084L36.5871 32.1256L39.0457 31.7172L42.4655 32.1171L46.8467 30.5284L46.4894 30.2923L42.3592 31.7917L40.1516 31.5322L41.0512 31.3833L42.4932 31.411L45.7387 29.8457L45.3133 29.633L42.2741 31.092L40.9981 31.0686L35.8491 31.9193L35.6514 31.8704L35.5918 31.9427L33.9095 31.7896L33.8989 31.5769L34.6199 31.6386L38.346 31.4812L41.9211 30.6198L41.6786 30.354L38.2162 31.1877L34.6964 31.3387L33.8904 31.2685L33.8712 30.9027L38.8585 31.0005L42.2125 29.918L41.8913 29.6734L38.7012 30.6964L33.8415 30.6028V30.488L36.0746 30.5837L39.2647 30.1583L43.2631 28.8929L42.9441 28.6462L39.0351 29.8818L36.0469 30.2817L33.8159 30.1838L33.8053 29.9478L35.8194 30.0009L41.0406 28.593L40.7641 28.3335L35.7237 29.6883L33.8096 29.6394L33.7989 29.4097L35.3515 29.4458L39.4285 28.4888L39.1861 28.2208L35.2622 29.1417L34.0946 29.1162L34.1541 28.844L33.7692 28.827V28.7717L34.0137 28.8206L34.2051 28.5377L33.7521 28.4463V28.3293L35.2983 28.6674L35.4982 28.3867L33.7266 28.0081L33.7096 27.6381L37.4251 28.157L39.1754 27.7444L38.9308 27.4765L37.4059 27.8359L33.6798 27.3191V27.0596L35.0707 27.3361L35.26 27.0511L33.6628 26.7342V26.6555H34.3008L35.696 27.2255L38.2014 27.2042V26.9044L35.8172 26.9235L35.1409 26.647L36.7871 26.6342L37.3783 26.3812L38.867 26.9533L39.0946 26.6917L37.8185 26.1961L39.0414 25.6687L38.95 25.5687L39.1222 25.5198L38.8394 25.2625L36.636 25.8601L35.4812 25.8261L38.2758 25.0966L40.5387 25.3773L40.7343 25.086L39.0904 24.8733L39.5816 24.7435L41.0278 24.869L41.1788 24.5734L39.5136 24.4309L35.3642 25.5198L35.1367 25.4986L36.6977 24.9583L36.4489 24.7031L36.3851 24.7244L36.2787 24.4458L34.3647 24.7627L34.2881 24.7329L35.2707 24.4415L35.1665 24.3012L36.1809 24.4245L37.055 24.0545L38.3885 24.1034L38.431 23.8035L37.7101 23.778L37.9674 23.6695L37.9376 23.6376L40.7258 23.9779L41.0278 23.8503V23.8801L42.44 23.9311L42.4847 23.6312L41.6212 23.6015L42.5187 23.2208L42.2699 22.9741L40.645 23.661L37.8419 23.3186L36.2405 23.6802L36.3808 23.963L36.5127 23.9332L36.1001 24.1076L35.0707 23.9822L36.2149 23.7695L36.0831 23.4845L34.0882 23.8737L33.5139 23.8035L33.4969 23.459L34.6581 23.5993L37.3868 22.8677L39.6625 23.1421L42.0785 22.0787L41.802 21.8384L39.5668 22.8273L37.3506 22.5615L34.6241 23.2931L33.482 23.1548L33.4671 22.9018L34.9963 23.04L37.1103 22.5211L36.9444 22.2446L36.5191 22.3467L37.172 22.0362L38.4098 22.5232L40.0176 21.3407L39.6476 21.1557L38.3247 22.1276L37.591 21.8384L38.7224 21.3024L38.431 21.0685L36.1575 22.1467L33.4204 22.0553L33.4097 21.8724L34.941 21.9957L36.8402 21.3258L36.6105 21.0685L34.873 21.6767L33.9542 21.6065L35.0686 21.5108L35.0218 21.2152L33.5033 21.3428L33.3863 21.3258V21.2131L35.5982 21.1812L36.0384 20.9685L37.8313 20.8941L37.8185 20.5942L36.7552 20.641L37.1337 20.4645L39.4732 20.6771L39.5625 20.3815L37.6931 20.2156L38.7905 19.6924L38.5055 19.4564L35.8747 20.6729H35.8598L35.4451 20.8664L33.9797 20.8898L37.1699 19.5414L36.9019 19.2969L33.8351 20.607L33.3481 20.5729V20.5283L34.7815 19.9732L34.7156 19.9073L35.9576 19.5181L35.7449 19.2522L34.5327 19.6308L33.6564 19.5223L34.1669 19.3096L33.9755 19.0544L33.2885 19.3479L33.2502 18.6099L33.7798 18.5419L33.7692 18.5121L38.0227 18.7971L40.1069 18.1101L39.8943 17.8485L37.9483 18.4866L36.6722 18.4015L38.4991 17.9102L38.3183 17.638L35.7237 18.3377L33.2311 18.1697L33.2183 17.9208H36.1788L38.3183 16.9723L38.0419 16.7298L36.0363 17.621H34.9155L35.1622 17.5274L35.0112 17.37L36.3915 17.4168L38.1758 16.4683L37.8653 16.2556L36.2383 17.1212L34.5858 17.0659L34.8581 16.8957L34.5178 16.6831L33.9499 17.0361L33.1715 17.0106V16.8979L33.3055 16.8745L33.1715 16.5874H33.1503V16.5023L35.9151 16.7703L38.2545 15.9833L38.0419 15.7239L35.8619 16.4576L35.6003 16.4321L36.0703 16.3151L35.9044 16.0386L34.6603 16.347L33.1333 16.1982V16.0386L34.7219 16.1556L36.6148 15.7196L36.5042 15.4389L34.6837 15.8643L33.1077 15.7494L33.095 15.4729L34.2583 15.2262L34.7879 15.3751V15.3879H34.8006L35.3536 15.5431L35.4344 15.256L35.1601 15.1773L36.0937 14.635L35.9512 14.3755L34.7666 15.0561L34.2583 14.9136L34.2349 14.8817H34.1818L33.8712 14.8009L33.8266 14.9604L33.0758 15.1135L33.0546 14.6711L33.2843 14.6031L33.0886 14.3351L33.0375 14.35V14.3011L33.5799 14.5137L35.0048 13.7311L34.6858 13.5184L33.5543 14.1394L33.0184 13.9268L32.9993 13.5652L35.4855 13.4567L37.9802 12.4253L37.7186 12.1785L35.3387 13.1654L32.9844 13.2653V13.1377L34.9602 12.9974L37.1252 12.1211L36.8679 11.8744L34.8028 12.7081L32.9695 12.84V12.7187H32.9886L35.511 12.3487L36.8551 11.1449L36.4531 10.9833L36.149 11.2534L35.8981 11.079L34.2498 11.9744L32.9184 11.9148V11.8064L34.6922 11.6064L35.494 11.0875L35.1452 10.8876L34.4476 11.33L32.8908 11.5065V11.4193L33.918 11.2896L35.4365 10.5473L35.1431 10.3346L33.7245 11.0237L32.8738 11.1279V11.0556L33.0014 11.0428L34.5497 10.341L34.2689 10.1028L32.8589 10.7408V10.592L33.9223 10.0624L33.6245 9.83271L33.229 10.0284L33.0652 9.86887L32.8206 9.9667V9.92842L35.0091 8.78846L34.7007 8.56303L32.8036 9.5541L32.7866 9.22658L34.0839 8.68638L33.8096 8.43329L32.7589 8.87141L32.7483 8.67362L33.2545 8.44393L32.9801 8.20785L32.7377 8.31845V8.23338L32.559 8.40139L32.2421 8.54601L31.4956 8.20785L31.2128 8.44605L32.2379 8.91182L32.4718 8.80335L32.4612 9.00114L32.2485 9.09472L30.6704 8.43542L30.4046 8.68L32.1081 9.3946L32.2336 9.41799L32.357 9.3946L32.4378 9.36057L32.4187 9.66895H32.2336L31.8933 9.65406L29.7666 8.54601L29.4582 8.77145L31.7083 9.94543L32.2272 9.9667H32.3974V10.1156H32.2379H32.0507L31.4127 9.85823L31.2489 10.0177L30.8533 9.82208L30.5577 10.0518L32.0316 10.7834L31.653 10.7451L30.2068 10.0901L29.9239 10.3346L31.4744 11.0365L32.2379 11.1109L32.3442 11.1003V11.1875L32.2443 11.2002L30.7555 11.0173L29.3306 10.3346L29.0371 10.5473L30.5535 11.281L32.2379 11.4937H32.3208V11.5767H32.2421L30.0239 11.3257L29.3433 10.8876L28.9945 11.0875L29.7878 11.6107L32.2379 11.8872H32.2996H32.2379L30.2238 11.9786L28.5756 11.0833L28.3246 11.2577L28.0226 10.9876L27.6228 11.1492L28.9648 12.3529L31.4978 12.7209H32.2379H32.2528L32.2421 12.8868L29.69 12.7039L27.6249 11.8702L27.3676 12.1169L29.5347 12.9931L32.2379 13.1866V13.293L29.1307 13.1654L26.7508 12.1785L26.4871 12.4253L28.9818 13.4567L32.1975 13.595V13.6205L30.9214 14.1479L29.7878 13.5248L29.4709 13.7375L30.8938 14.5201L31.8699 14.1203L31.8189 14.3011L32.1592 14.3457L32.1486 14.5584L31.385 14.3457L31.1894 14.6137L32.1294 14.8881L32.1081 15.2454L31.6317 15.1582L30.647 14.9582L30.6024 14.7987L30.2919 14.8859H30.2387L30.2153 14.9178L29.707 15.0603L28.5224 14.3755L28.3735 14.6328L29.3051 15.1752L29.0307 15.2539L29.1115 15.541L29.6666 15.3857V15.373L30.194 15.2241L31.8572 15.5601L31.8763 15.5346L32.072 15.5708V15.6835L29.7772 15.8515L27.9567 15.4261L27.8567 15.7154L29.7495 16.1514L32.055 15.9812V16.1237L29.8112 16.3364L28.5841 16.0323L28.4161 16.3087L28.8882 16.4257L28.6245 16.4512L26.4445 15.7175L26.2319 15.977L28.5713 16.7639L32.055 16.4257L32.0401 16.715L31.3149 16.5767L31.1894 16.8638L31.8274 16.9829L30.5513 17.0255L29.9835 16.6724L29.6432 16.8851L29.9154 17.0552L28.2651 17.1105L26.6359 16.2449L26.3254 16.4576L28.1098 17.4062L29.488 17.3594L29.3391 17.5168L29.5858 17.6103H28.4671L26.4615 16.7192L26.1532 16.9744L28.2948 17.923H31.9593L31.9486 18.1356L28.7585 18.3483L26.1532 17.638L25.9745 17.9102L27.7993 18.4015L26.5232 18.4866L24.5772 17.8485L24.3645 18.1101L26.4488 18.7971L30.7023 18.5121V18.5419L31.921 18.6992L31.8848 19.3649L31.351 19.416L30.5003 19.0544L30.3089 19.3054L30.8193 19.5181L29.941 19.6265L28.7287 19.248L28.516 19.5138L29.7687 19.9051L29.7049 19.9711L31.2383 20.5644L30.6492 20.6048L27.5824 19.3054L27.3165 19.55L30.5067 20.8983L29.0413 20.8749L28.616 20.6814H28.6032L25.9724 19.4649L25.6831 19.6924L26.7912 20.2093L24.9218 20.3751L25.0132 20.6708L27.342 20.4581L27.7206 20.6346L26.6572 20.5878L26.6445 20.8877L28.4373 20.9621L28.8776 21.1748L31.5275 21.2195L31.6254 21.2493L30.9724 21.3428L29.4539 21.2152L29.4071 21.5108L30.5216 21.6065L29.6156 21.6789L27.8546 21.06L27.6419 21.3173L29.5411 21.9872L31.7402 21.8192L31.7275 22.0319L28.314 22.1467L26.0404 21.0685L25.7491 21.3024L26.8805 21.8384L26.1532 22.1191L24.8303 21.1472L24.4603 21.3322L26.0681 22.5147L27.3059 22.0277L27.9588 22.3382L27.5334 22.2361L27.3697 22.5126L29.4794 23.0315L31.6828 22.8316L31.67 23.0655L29.8538 23.2782L27.1294 22.5466L24.9133 22.8124L22.6759 21.8235L22.3994 22.0638L24.8176 23.1272L27.0911 22.8528L29.8197 23.5845L31.6509 23.3718L31.6232 23.8716L31.183 23.7737L30.3897 23.8694L28.3948 23.4802L28.2629 23.7652L29.4071 23.9779L28.3778 24.1034L27.9652 23.929L28.097 23.9588L28.2374 23.6759L26.6359 23.3144L23.8329 23.6568L22.2101 22.9698L21.9613 23.2165L22.8588 23.5972L21.9932 23.627L22.0379 23.9269L23.4522 23.8758V23.846L23.7563 23.9736L26.5424 23.6334L26.5126 23.6653L26.7699 23.7737L26.0468 23.7993L26.0915 24.0991L27.425 24.0502L28.3012 24.4203L29.3136 24.2969L29.2093 24.4373L30.194 24.7287L30.1175 24.7584L28.2034 24.4415L28.097 24.7201L28.0354 24.6989L27.7844 24.9541L29.3455 25.4943L29.1179 25.5156L24.9686 24.4267L23.3054 24.5691L23.4543 24.8648L24.9026 24.7393L25.3918 24.869L23.7478 25.0817L23.9434 25.3731L26.2063 25.0923L28.9945 25.8239L27.8418 25.858L25.6555 25.2518L25.3705 25.5092L25.5428 25.5581L25.4513 25.6581L26.6764 26.1855L25.4003 26.681L25.6279 26.9426L27.1166 26.3705L27.7078 26.6236L29.3561 26.6364L28.6777 26.9129L26.2935 26.8937V27.1936L28.7989 27.2149L30.194 26.6449H31.2106L29.2264 27.0383L29.4156 27.3233L31.3425 26.9405H31.4573L31.4403 27.2191L27.0698 27.8274L25.5449 27.4679L25.3025 27.7444L27.0549 28.157L31.4276 27.5488L31.4084 27.8699L28.9945 28.3867L29.1966 28.6674L31.3808 28.1996V28.3229L30.2834 28.5462L30.4769 28.8291L31.3616 28.6504V28.8057L30.3408 28.8525L30.4025 29.1247L29.237 29.1502L25.3025 28.2272L25.06 28.4952L29.137 29.4522L31.3191 29.4033L31.3042 29.6288L28.7521 29.6947L23.7052 28.3335L23.4266 28.593L28.6436 29.9988L31.2808 29.9308L31.2681 30.1562L28.4139 30.2795L25.4364 29.8797L21.5274 28.6441L21.2084 28.8908L25.2068 30.1562L28.3969 30.5815L31.2511 30.4582V30.5879L25.7746 30.6943L22.5993 29.6713L22.2739 29.9159L25.63 30.9984L31.234 30.8899L31.217 31.2132L29.7921 31.3366L26.2723 31.1856L22.812 30.3519L22.561 30.6198L26.1362 31.4812L29.8623 31.6386L31.1979 31.5237L31.1872 31.7364L28.8903 31.9491L28.8308 31.8768L28.633 31.9257L23.4841 31.075L22.208 31.0984L19.1731 29.6351L18.7477 29.8478L21.9804 31.3897L23.4245 31.3621L24.3241 31.511L22.1123 31.7789L17.9821 30.2795L17.6269 30.5156L22.006 32.1043L25.4258 31.7045L27.8822 32.1128L26.7657 32.3957L25.2387 32.049L25.1089 32.2617L21.2807 32.6871L21.4317 32.9806L25.5002 32.5212L25.4386 32.4021L26.804 32.7105L27.2846 32.5892L27.208 32.8019H27.2591L26.1532 33.0911L24.2391 33.1401L24.2922 33.4399H24.5049L23.8669 33.6526L19.9919 32.9082L19.8281 33.1911L22.963 33.7823L22.157 34.0333L20.1323 33.8674L20.0791 34.1652L22.2973 34.3459L23.6478 33.9206L23.6329 33.9057L23.9817 33.9738L25.4024 33.491L27.4952 33.6654L25.3025 34.1886L25.5768 34.4629L27.6334 33.9738L31.0362 34.3693V34.465L29.5028 35.0052L27.6951 34.5799L25.6321 34.8713L25.7533 35.1626L27.6674 34.8904L29.5475 35.3455L30.998 34.8351L30.9809 35.1222L29.7708 35.4221L29.9516 35.6348L28.9414 35.4731L26.5211 35.807L25.6853 35.5625L25.6172 35.4795L25.513 35.5114L23.0821 34.7926L22.8971 35.0627L24.9749 35.6731L24.0859 35.9432L22.1123 35.4306L21.9485 35.7071L23.2437 36.0431L22.6376 36.2749L21.0872 35.505L20.8043 35.739L22.6163 36.6407L23.7988 36.1877L24.1093 36.2686L25.5364 35.8432L26.4786 36.1197L25.6725 36.2345L25.7937 36.5259L26.7444 36.3898L26.6912 36.5684L29.4561 36.9066L30.8895 36.7832L30.8725 37.0512L28.8563 37.3872L25.7916 36.6407L25.6385 36.9193L26.7019 37.1788L25.9235 37.3915L23.9626 36.494L21.9741 36.7598L22.091 37.0533L23.8754 36.8151L25.8958 37.7254L27.3271 37.3234V37.3107L27.8035 37.4276L26.9528 37.7934L23.4926 38.0912L20.4938 37.1894L20.1982 37.4468L23.3884 38.4081L27.2166 38.0806L28.3033 37.6191L28.1247 37.5106L28.8606 37.6914L30.8682 37.3575L30.8448 37.7828L29.5326 37.8041H29.4646L27.476 38.4421L27.7631 38.7037L28.9903 38.3039L28.9307 38.5867L29.2221 38.6144L28.9882 38.742L29.69 39.144L27.6419 38.9547L26.9613 39.1184L26.9784 39.0504L23.9541 38.7633L23.9264 38.8717L23.0651 39.1269L20.4938 38.4889L20.3109 38.7611L23.1629 39.4715L24.3412 39.1206L24.3156 39.1014L26.2659 39.2864L24.9898 39.5948L18.9753 39.2588L18.9455 39.5565L25.1132 39.9075L27.7419 39.2694L30.7321 39.5438L30.7151 39.8628L23.5542 39.9649L21.0765 40.3222L19.39 40.1861L19.3326 40.4817L21.1489 40.6284L23.65 40.2648L30.7045 40.1627V40.2031L23.8584 40.3477L21.3062 41.024L18.6499 40.5349L18.4776 40.8156L20.6044 41.2154L19.3921 41.5366L17.3419 40.9219L17.0718 41.1729L18.5606 41.6216L17.0995 42.1746L17.4674 42.4171L19.1263 41.779L19.4049 41.8641L24.037 40.6369L25.6874 40.6029L23.7563 40.9602L21.0787 42.2363L21.504 42.4617L23.8754 41.3388L24.0413 41.5366L26.2659 41.1006L29.9643 41.5259L30.6513 41.3133V41.5132L29.0137 41.9641L27.1591 41.5089L26.9656 41.7833L29.052 42.2958L30.6322 41.8598V41.93L29.2689 42.3447L25.9788 42.2044L22.8822 42.2852L22.9481 42.5851L25.9852 42.5043L28.4076 42.6085L27.7376 42.8211L23.7414 42.7829L23.2374 43.0402L20.1769 43.2274L20.2811 43.5251L22.5568 43.3847L20.5555 44.4056L20.9808 44.6183L22.0293 44.0823L21.7741 44.7204L22.3505 44.7969L22.7886 43.691L24.003 43.0742L27.9248 43.1104L30.6109 42.2916L30.5769 42.9041L28.3863 43.1678L27.4845 43.7952L25.7703 44.261L23.5053 44.4928L23.6542 44.7863L25.9937 44.5481L26.9486 44.2886L27.2655 44.4354L27.8163 44.0547L29.5751 43.5762L30.5279 43.742L30.5046 44.1376L30.0643 44.0547L27.5994 44.9394L27.9035 45.1946L30.16 44.3843L30.3536 44.4205C29.8027 45.4669 27.8014 49.2334 26.1213 52.264V52.2768C24.741 54.7864 19.9834 53.706 19.9536 53.6975C19.171 53.4359 18.2947 53.0382 17.9566 52.6128C17.3462 51.8493 13.2096 50.6796 13.1415 50.6604C13.0076 50.5307 12.8757 50.401 12.7481 50.267C12.5373 50.0612 12.3411 49.8409 12.1611 49.6077C12.0463 49.4716 11.9335 49.3333 11.8229 49.1951L11.6252 48.9037C11.2934 48.4507 10.9361 47.9275 10.5618 47.3725H10.5214L10.4129 47.4788H10.3066L10.2023 47.5532H10.1513L10.364 47.3405L10.4788 47.3023C10.381 47.1555 10.2853 47.0066 10.1875 46.8578H10.1513L10.1258 46.7663C8.89225 44.865 7.63107 42.7573 7.03344 41.7471C6.9014 41.5512 6.7841 41.3458 6.68252 41.1325C6.49033 40.749 6.33714 40.3471 6.22527 39.933L6.17635 39.9521L6.20187 39.8564C6.02187 39.1166 5.93682 38.3569 5.94879 37.5957C5.94879 37.4383 5.94879 37.2596 5.94879 37.064V37.081L5.92114 37.0555V37.3766H5.8148V37.2958H5.73611V37.132L5.8701 36.864L5.96367 36.9364C5.98707 36.1792 6.03386 35.2052 6.03598 34.2226L5.95091 34.2885L6.00408 34.1014L6.03598 34.1333C6.03598 32.4914 5.89987 30.8431 5.30225 30.1647L5.58936 30.237V29.9478C5.66167 28.3633 6.09553 25.9813 6.67189 24.6117C7.46518 22.6657 7.89904 20.7835 8.83482 18.914C9.26018 17.9783 10.062 17.2552 10.7085 16.3917C11.2147 15.7537 11.5762 14.8774 12.1526 14.2266C12.414 13.9218 12.6984 13.6374 13.0033 13.3759V13.3121L13.1075 13.2909C13.2947 13.1335 13.4903 12.9803 13.6881 12.8315H13.6732V12.7506L13.7264 12.6443V12.4316L13.7796 12.3253V12.1126L13.9136 12.2445L13.9944 12.219L14.0476 12.1126H14.1539L14.2092 12.0042H14.3432L14.4495 12.1913L14.3155 12.2998L14.1539 12.219L14.0752 12.2721V12.4316L13.9412 12.5933L13.9136 12.6486L13.8604 12.6996C14.9238 11.9127 16.0361 11.1747 16.7592 10.1794L16.6869 10.0348C18.5627 8.23125 22.0953 7.36778 24.556 6.71698L24.6283 6.78929C27.0871 5.92334 29.6779 5.49156 32.2847 5.51323H32.3655V5.52386C33.6273 5.54514 34.8808 5.73249 36.0937 6.08108C37.8249 6.58512 39.4115 7.16361 41.2129 7.66765C41.8509 7.8378 42.54 7.98454 43.2035 8.19297L43.2184 8.1483L43.2971 8.17383L43.212 8.19509C43.6703 8.332 44.1124 8.51811 44.5306 8.75018C45.6132 9.32654 46.4766 10.2644 47.5592 10.9131C49.0288 11.8319 50.9152 12.6996 52.3763 13.8247L52.4508 13.7758L52.4018 13.8417C52.5635 13.9679 52.7187 14.0955 52.8676 14.2245L52.9187 14.2415V14.2628C52.9867 14.3245 53.0569 14.384 53.1207 14.4457C54.5499 15.8047 55.9068 19.0736 56.1429 21.0259C57.487 24.4288 58.7439 27.3425 58.6014 31.177C58.6014 31.3068 58.6014 31.4408 58.6014 31.5705L58.5504 31.5981V33.4846C58.5504 33.5654 58.5504 33.6462 58.5504 33.7249V35.0733L58.712 34.9117V35.0478L58.578 35.1796H58.5504V35.4306L58.6035 35.3498H58.6588V35.4306L58.5185 35.5731C58.4802 36.192 58.4802 36.8215 58.4483 37.4532Z" fill="white"/>
</g>
<defs>
<clipPath id="clip0_150_1825">
<rect width="64" height="64" fill="white"/>
</clipPath>
</defs>
</svg>
