<svg width="24" height="24" viewBox="0 0 24 24" fill="none" xmlns="http://www.w3.org/2000/svg">
<path fill-rule="evenodd" clip-rule="evenodd" d="M14.849 5.65811C14.3922 5.65792 13.941 5.75916 13.528 5.95453C13.115 6.14989 12.7506 6.43451 12.461 6.78783C12.1714 7.14115 11.9639 7.55436 11.8534 7.99764C11.7429 8.44091 11.7321 8.9032 11.822 9.35111C11.8529 9.50631 11.8466 9.66664 11.8035 9.81891C11.7604 9.97118 11.6818 10.1111 11.5741 10.227C11.4665 10.343 11.3328 10.4318 11.1841 10.486C11.0355 10.5403 10.8761 10.5585 10.719 10.5391C8.56873 10.275 6.54172 9.39107 4.885 7.99511C4.916 8.59711 5.125 9.23711 5.578 9.90711L6.257 10.9111L5.142 11.3861L4.927 11.4781C5.087 11.6611 5.279 11.8481 5.494 12.0331C5.78141 12.2791 6.08547 12.505 6.404 12.7091L6.415 12.7161H6.416L7.964 13.6551L6.344 14.4651C6.264 14.5051 6.184 14.5411 6.104 14.5731C6.45234 14.8626 6.83609 15.1065 7.246 15.2991L8.636 15.9561L7.472 16.9601C6.837 17.5081 6.198 17.9171 5.369 18.1331C6.64044 18.8104 8.05944 19.1631 9.5 19.1601C14.306 19.1601 18.176 15.3251 18.176 10.6261V10.1061L18.601 9.80711C19.265 9.34111 19.734 8.71111 20.07 7.99011H17.91L17.638 7.42011C17.3875 6.89278 16.9926 6.44731 16.4991 6.13542C16.0056 5.82354 15.4338 5.65803 14.85 5.65811H14.849ZM3.569 12.9581C3.47463 13.0662 3.40463 13.1933 3.36373 13.3308C3.32284 13.4683 3.31202 13.613 3.332 13.7551C3.445 14.5561 3.924 15.2461 4.454 15.7731C4.598 15.9161 4.752 16.0531 4.914 16.1841L4.839 16.2041C4.358 16.3241 3.709 16.3491 2.628 16.2441C2.42386 16.2241 2.2185 16.2673 2.03975 16.3679C1.86101 16.4686 1.71754 16.6217 1.62879 16.8067C1.54004 16.9916 1.5103 17.1993 1.54361 17.4017C1.57692 17.6041 1.67166 17.7914 1.815 17.9381C2.81577 18.961 4.01129 19.7731 5.33102 20.3265C6.65075 20.8799 8.06795 21.1633 9.499 21.1601C15.212 21.1601 19.898 16.7241 20.163 11.1261C21.453 10.0431 22.098 8.57611 22.446 7.24311C22.4847 7.09516 22.4889 6.94031 22.4584 6.79047C22.4279 6.64062 22.3634 6.49977 22.2699 6.37876C22.1764 6.25774 22.0564 6.15978 21.9191 6.0924C21.7818 6.02502 21.6309 5.99003 21.478 5.99011H19.125C18.5494 5.09644 17.7083 4.40555 16.7199 4.01455C15.7314 3.62354 14.6453 3.55206 13.6141 3.81016C12.583 4.06825 11.6586 4.64295 10.9709 5.45349C10.2832 6.26403 9.8667 7.26968 9.78 8.32911C7.93666 7.84926 6.28733 6.80992 5.059 5.35411C4.95022 5.2255 4.81071 5.12644 4.65342 5.06614C4.49613 5.00585 4.32615 4.98626 4.15927 5.0092C3.99239 5.03215 3.83401 5.09687 3.69882 5.19738C3.56364 5.29788 3.45604 5.43091 3.386 5.58411C2.78 6.90611 2.664 8.43011 3.34 9.98011L3.106 10.0801C2.88207 10.1755 2.70064 10.3493 2.5957 10.569C2.49077 10.7886 2.46954 11.039 2.536 11.2731C2.722 11.9251 3.14 12.5011 3.568 12.9581H3.569Z" fill="#E5E5E5"/>
</svg>
