<svg width="24" height="24" viewBox="0 0 24 24" fill="none" xmlns="http://www.w3.org/2000/svg">
<path fill-rule="evenodd" clip-rule="evenodd" d="M7.84499 4.77499C10.437 4.40799 13.563 4.40799 16.155 4.77499C18.51 5.10899 20.335 6.76099 20.683 8.54099C21.106 10.696 21.106 13.304 20.683 15.459C20.334 17.239 18.51 18.891 16.155 19.225C13.563 19.592 10.436 19.592 7.84499 19.225C5.48999 18.891 3.66599 17.239 3.31699 15.459C2.89399 13.304 2.89399 10.696 3.31699 8.54099C3.66599 6.76099 5.48999 5.10899 7.84499 4.77499ZM16.435 2.79499C13.658 2.40199 10.342 2.40199 7.56499 2.79499C4.54999 3.22199 1.89999 5.37299 1.35499 8.15699C0.881994 10.566 0.881994 13.434 1.35499 15.843C1.89999 18.627 4.54999 20.778 7.56499 21.205C10.342 21.598 13.658 21.598 16.435 21.205C19.45 20.778 22.1 18.627 22.645 15.843C23.118 13.434 23.118 10.566 22.645 8.15699C22.1 5.37299 19.45 3.22199 16.435 2.79499ZM10.555 7.16799C10.4044 7.06752 10.2293 7.00981 10.0485 7.00102C9.86768 6.99224 9.68786 7.03271 9.52823 7.11812C9.3686 7.20353 9.23515 7.33067 9.14212 7.48599C9.04909 7.6413 8.99997 7.81895 8.99999 7.99999V16C8.99997 16.181 9.04909 16.3587 9.14212 16.514C9.23515 16.6693 9.3686 16.7965 9.52823 16.8819C9.68786 16.9673 9.86768 17.0077 10.0485 16.999C10.2293 16.9902 10.4044 16.9325 10.555 16.832L16.555 12.832C16.692 12.7407 16.8042 12.617 16.8819 12.4718C16.9596 12.3267 17.0002 12.1646 17.0002 12C17.0002 11.8354 16.9596 11.6733 16.8819 11.5282C16.8042 11.383 16.692 11.2593 16.555 11.168L10.555 7.16799ZM14.197 12L11 14.132V9.86899L14.197 12Z" fill="#E5E5E5"/>
</svg>
